<svg width="22" height="20" viewBox="0 0 22 20" fill="none" xmlns="http://www.w3.org/2000/svg">
<path d="M18.4501 6.66667C18.0334 2.925 14.8501 0 11.0001 0C7.15007 0 3.96673 2.925 3.55007 6.66667H0.983398L2.5834 17.85C2.7584 19.075 3.82507 20 5.0584 20H16.9501C18.1834 20 19.2501 19.075 19.4251 17.85L21.0251 6.66667H18.4584H18.4501ZM11.0001 1.66667C13.9334 1.66667 16.3584 3.84167 16.7667 6.66667H5.2334C5.64173 3.84167 8.06673 1.66667 11.0001 1.66667ZM17.7667 17.6167C17.7084 18.025 17.3501 18.3333 16.9417 18.3333H5.0584C4.65007 18.3333 4.29173 18.025 4.2334 17.6167L2.9084 8.33333H19.0917L17.7667 17.6167Z" fill="#1E1E1E"/>
</svg>
