<svg width="13" height="11" viewBox="0 0 13 11" fill="none" xmlns="http://www.w3.org/2000/svg">
<path d="M10.2917 1.99776H9.15417C9.02845 1.4341 8.69582 0.927632 8.21234 0.563727C7.72887 0.199821 7.12411 0.000726447 6.5 0H2.70833C1.9903 0.000793039 1.30193 0.264145 0.794202 0.732288C0.286478 1.20043 0.00086009 1.83514 0 2.4972L0 6.99216C0.00136164 7.43947 0.1655 7.87342 0.466124 8.2245C0.766748 8.57558 1.18646 8.82348 1.65804 8.92848C1.607 9.17843 1.61572 9.43563 1.6836 9.68215C1.75149 9.92866 1.87689 10.1585 2.05107 10.3558C2.22525 10.553 2.44401 10.7128 2.69208 10.824C2.94014 10.9352 3.21155 10.9952 3.48734 10.9997C3.76314 11.0043 4.03669 10.9532 4.28889 10.8502C4.5411 10.7472 4.7659 10.5947 4.94759 10.4034C5.12928 10.212 5.2635 9.98638 5.34086 9.74226C5.41823 9.49813 5.43689 9.24138 5.39554 8.98991H7.60663C7.59269 9.07255 7.58527 9.15601 7.58442 9.23963C7.58442 9.70324 7.78416 10.1479 8.13969 10.4757C8.49523 10.8035 8.97744 10.9877 9.48025 10.9877C9.98306 10.9877 10.4653 10.8035 10.8208 10.4757C11.1763 10.1479 11.3761 9.70324 11.3761 9.23963C11.3755 9.1352 11.3644 9.03104 11.343 8.92848C11.8144 8.82329 12.2339 8.57531 12.5343 8.22424C12.8347 7.87318 12.9987 7.43933 13 6.99216V4.49496C12.9991 3.8329 12.7135 3.19819 12.2058 2.73005C11.6981 2.2619 11.0097 1.99855 10.2917 1.99776ZM11.9167 4.49496V4.9944H9.20833V2.99664H10.2917C10.7226 2.99664 11.136 3.1545 11.4407 3.43549C11.7455 3.71647 11.9167 4.09758 11.9167 4.49496ZM1.08333 6.99216V2.4972C1.08333 2.09982 1.25454 1.71872 1.55928 1.43773C1.86403 1.15674 2.27736 0.998879 2.70833 0.998879H6.5C6.93098 0.998879 7.3443 1.15674 7.64905 1.43773C7.9538 1.71872 8.125 2.09982 8.125 2.4972V7.99103H2.16667C1.87935 7.99103 1.6038 7.8858 1.40063 7.69847C1.19747 7.51114 1.08333 7.25707 1.08333 6.99216ZM4.33333 9.23963C4.33333 9.43832 4.24773 9.62887 4.09536 9.76937C3.94298 9.90986 3.73632 9.98879 3.52083 9.98879C3.30535 9.98879 3.09868 9.90986 2.94631 9.76937C2.79394 9.62887 2.70833 9.43832 2.70833 9.23963C2.70867 9.15427 2.72573 9.06967 2.75871 8.98991H4.28296C4.31593 9.06967 4.333 9.15427 4.33333 9.23963ZM9.47917 9.98879C9.26368 9.98879 9.05702 9.90986 8.90464 9.76937C8.75227 9.62887 8.66667 9.43832 8.66667 9.23963C8.6669 9.15427 8.68397 9.06965 8.71704 8.98991H10.2413C10.2744 9.06965 10.2914 9.15427 10.2917 9.23963C10.2917 9.43832 10.2061 9.62887 10.0537 9.76937C9.90132 9.90986 9.69466 9.98879 9.47917 9.98879ZM10.8333 7.99103H9.20833V5.99328H11.9167V6.99216C11.9167 7.25707 11.8025 7.51114 11.5994 7.69847C11.3962 7.8858 11.1207 7.99103 10.8333 7.99103Z" fill="#FFB803"/>
</svg>
