<svg width="68" height="71" viewBox="0 0 68 71" fill="none" xmlns="http://www.w3.org/2000/svg">
<path d="M62.3315 17.1658H48.5309C48.5309 17.1658 49.8997 13.4271 52.0053 13.4271C54.1108 13.4271 54.7718 16.0067 54.7718 16.0067C54.7718 16.0067 56.1922 14.6057 57.3594 14.6057C58.5267 14.6057 59.5408 16.4661 59.5408 16.4661C59.5408 16.4661 61.1901 15.4617 62.3315 17.1658Z" fill="#EBEBEB"/>
<path d="M50.2834 7.55389H43.8345C43.8345 7.55389 45.2759 5.45801 46.4141 5.45801C47.5523 5.45801 47.886 6.84935 47.886 6.84935C47.886 6.84935 48.6921 6.20446 49.4289 6.31732C50.1657 6.43017 50.2834 7.55389 50.2834 7.55389Z" fill="#EBEBEB"/>
<path d="M15.7143 18.9587H3.1535C3.1535 18.9587 4.87374 15.1184 6.71327 14.8782C8.55281 14.6379 9.43469 17.7318 9.43469 17.7318C9.43469 17.7318 10.6213 16.6387 11.5548 16.6387C12.4882 16.6387 13.2024 18.0784 13.2024 18.0784C13.2024 18.0784 15.0742 17.0917 15.7143 18.9587Z" fill="#EBEBEB"/>
<path d="M28.7458 2.82355H20.2591C20.2591 2.82355 21.7101 0.0408661 23.2997 0.000560761C24.8894 -0.0397446 25.7181 2.10611 25.7181 2.10611C25.7181 2.10611 28.1718 0.132762 28.7458 2.82355Z" fill="#EBEBEB"/>
<path d="M37.9226 10.5219H32.196C32.196 10.5219 33.1794 8.64369 34.2467 8.61789C35.314 8.5921 35.8751 10.0383 35.8751 10.0383C35.8751 10.0383 37.5356 8.70657 37.9226 10.5219Z" fill="#EBEBEB"/>
<path d="M52.6775 19.5326H46.8107V50.2904H52.6775V19.5326Z" fill="#DBDBDB"/>
<path d="M48.8614 20.5321H47.7216V21.7058H48.8614V20.5321Z" fill="#EBEBEB"/>
<path d="M50.3205 20.5321H49.1807V21.7058H50.3205V20.5321Z" fill="#EBEBEB"/>
<path d="M48.8614 22.5265H47.7216V23.7002H48.8614V22.5265Z" fill="#EBEBEB"/>
<path d="M50.3205 22.5265H49.1807V23.7002H50.3205V22.5265Z" fill="#EBEBEB"/>
<path d="M48.8614 24.5208H47.7216V25.6944H48.8614V24.5208Z" fill="#EBEBEB"/>
<path d="M50.3205 24.5208H49.1807V25.6944H50.3205V24.5208Z" fill="#EBEBEB"/>
<path d="M48.8614 26.5135H47.7216V27.6872H48.8614V26.5135Z" fill="#EBEBEB"/>
<path d="M50.3205 26.5135H49.1807V27.6872H50.3205V26.5135Z" fill="#EBEBEB"/>
<path d="M48.8614 28.5078H47.7216V29.6815H48.8614V28.5078Z" fill="#EBEBEB"/>
<path d="M50.3205 28.5078H49.1807V29.6815H50.3205V28.5078Z" fill="#EBEBEB"/>
<path d="M48.8614 30.5021H47.7216V31.6758H48.8614V30.5021Z" fill="#EBEBEB"/>
<path d="M50.3205 30.5021H49.1807V31.6758H50.3205V30.5021Z" fill="#EBEBEB"/>
<path d="M48.8614 32.4963H47.7216V33.67H48.8614V32.4963Z" fill="#EBEBEB"/>
<path d="M50.3205 32.4963H49.1807V33.67H50.3205V32.4963Z" fill="#EBEBEB"/>
<path d="M48.8614 34.4891H47.7216V35.6628H48.8614V34.4891Z" fill="#EBEBEB"/>
<path d="M50.3205 34.4891H49.1807V35.6628H50.3205V34.4891Z" fill="#EBEBEB"/>
<path d="M48.8614 36.4834H47.7216V37.6571H48.8614V36.4834Z" fill="#EBEBEB"/>
<path d="M50.3205 36.4834H49.1807V37.6571H50.3205V36.4834Z" fill="#EBEBEB"/>
<path d="M48.8614 38.4778H47.7216V39.6515H48.8614V38.4778Z" fill="#EBEBEB"/>
<path d="M50.3205 38.4778H49.1807V39.6515H50.3205V38.4778Z" fill="#EBEBEB"/>
<path d="M48.8614 40.4705H47.7216V41.6442H48.8614V40.4705Z" fill="#EBEBEB"/>
<path d="M50.3205 40.4705H49.1807V41.6442H50.3205V40.4705Z" fill="#EBEBEB"/>
<path d="M48.8614 42.4647H47.7216V43.6384H48.8614V42.4647Z" fill="#EBEBEB"/>
<path d="M50.3205 42.4647H49.1807V43.6384H50.3205V42.4647Z" fill="#EBEBEB"/>
<path d="M48.8614 44.4591H47.7216V45.6328H48.8614V44.4591Z" fill="#EBEBEB"/>
<path d="M50.3205 44.4591H49.1807V45.6328H50.3205V44.4591Z" fill="#EBEBEB"/>
<path d="M48.8614 46.4534H47.7216V47.6271H48.8614V46.4534Z" fill="#EBEBEB"/>
<path d="M50.6268 47.6271H51.7666V46.4534H50.6268V47.6271Z" fill="#EBEBEB"/>
<path d="M50.6268 45.6328H51.7666V44.4591H50.6268V45.6328Z" fill="#EBEBEB"/>
<path d="M50.6268 43.64H51.7666V42.4663H50.6268V43.64Z" fill="#EBEBEB"/>
<path d="M50.6268 41.6458H51.7666V40.4721H50.6268V41.6458Z" fill="#EBEBEB"/>
<path d="M50.6268 39.6514H51.7666V38.4777H50.6268V39.6514Z" fill="#EBEBEB"/>
<path d="M50.6268 37.6571H51.7666V36.4834H50.6268V37.6571Z" fill="#EBEBEB"/>
<path d="M50.6268 35.6644H51.7666V34.4907H50.6268V35.6644Z" fill="#EBEBEB"/>
<path d="M50.6268 33.6685H51.7666V32.4948H50.6268V33.6685Z" fill="#EBEBEB"/>
<path d="M50.6268 31.6758H51.7666V30.5021H50.6268V31.6758Z" fill="#EBEBEB"/>
<path d="M50.6268 29.6831H51.7666V28.5094H50.6268V29.6831Z" fill="#EBEBEB"/>
<path d="M50.6268 27.6887H51.7666V26.515H50.6268V27.6887Z" fill="#EBEBEB"/>
<path d="M50.6268 25.6945H51.7666V24.5208H50.6268V25.6945Z" fill="#EBEBEB"/>
<path d="M50.6268 23.7001H51.7666V22.5264H50.6268V23.7001Z" fill="#EBEBEB"/>
<path d="M50.6268 21.7075H51.7666V20.5338H50.6268V21.7075Z" fill="#EBEBEB"/>
<path d="M50.3205 46.4534H49.1807V47.6271H50.3205V46.4534Z" fill="#EBEBEB"/>
<path d="M57.303 19.5326H52.6776V50.2904H57.303V19.5326Z" fill="#A6A6A6"/>
<path d="M55.8842 47.6271H56.8257V46.4534H55.8842V47.6271Z" fill="#C7C7C7"/>
<path d="M54.6815 47.6271H55.623V46.4534H54.6815V47.6271Z" fill="#C7C7C7"/>
<path d="M55.8842 45.6328H56.8257V44.4591H55.8842V45.6328Z" fill="#C7C7C7"/>
<path d="M54.6815 45.6328H55.623V44.4591H54.6815V45.6328Z" fill="#C7C7C7"/>
<path d="M55.8842 43.64H56.8257V42.4663H55.8842V43.64Z" fill="#C7C7C7"/>
<path d="M54.6815 43.64H55.623V42.4663H54.6815V43.64Z" fill="#C7C7C7"/>
<path d="M55.8842 41.6458H56.8257V40.4721H55.8842V41.6458Z" fill="#C7C7C7"/>
<path d="M54.6815 41.6458H55.623V40.4721H54.6815V41.6458Z" fill="#C7C7C7"/>
<path d="M55.8842 39.6514H56.8257V38.4777H55.8842V39.6514Z" fill="#C7C7C7"/>
<path d="M54.6815 39.6514H55.623V38.4777H54.6815V39.6514Z" fill="#C7C7C7"/>
<path d="M55.8842 37.6571H56.8257V36.4834H55.8842V37.6571Z" fill="#C7C7C7"/>
<path d="M54.6815 37.6571H55.623V36.4834H54.6815V37.6571Z" fill="#C7C7C7"/>
<path d="M55.8842 35.6644H56.8257V34.4907H55.8842V35.6644Z" fill="#C7C7C7"/>
<path d="M54.6815 35.6644H55.623V34.4907H54.6815V35.6644Z" fill="#C7C7C7"/>
<path d="M55.8842 33.6685H56.8257V32.4948H55.8842V33.6685Z" fill="#C7C7C7"/>
<path d="M54.6815 33.6685H55.623V32.4948H54.6815V33.6685Z" fill="#C7C7C7"/>
<path d="M55.8842 31.6758H56.8257V30.5021H55.8842V31.6758Z" fill="#C7C7C7"/>
<path d="M54.6815 31.6758H55.623V30.5021H54.6815V31.6758Z" fill="#C7C7C7"/>
<path d="M55.8842 29.6831H56.8257V28.5094H55.8842V29.6831Z" fill="#C7C7C7"/>
<path d="M54.6815 29.6831H55.623V28.5094H54.6815V29.6831Z" fill="#C7C7C7"/>
<path d="M55.8842 27.6887H56.8257V26.515H55.8842V27.6887Z" fill="#C7C7C7"/>
<path d="M54.6815 27.6887H55.623V26.515H54.6815V27.6887Z" fill="#C7C7C7"/>
<path d="M55.8842 25.6945H56.8257V24.5208H55.8842V25.6945Z" fill="#C7C7C7"/>
<path d="M54.6815 25.6945H55.623V24.5208H54.6815V25.6945Z" fill="#C7C7C7"/>
<path d="M55.8842 23.7001H56.8257V22.5264H55.8842V23.7001Z" fill="#C7C7C7"/>
<path d="M54.6815 23.7001H55.623V22.5264H54.6815V23.7001Z" fill="#C7C7C7"/>
<path d="M55.8842 21.7075H56.8257V20.5338H55.8842V21.7075Z" fill="#C7C7C7"/>
<path d="M54.4268 20.5321H53.4852V21.7058H54.4268V20.5321Z" fill="#C7C7C7"/>
<path d="M54.4268 22.5265H53.4852V23.7002H54.4268V22.5265Z" fill="#C7C7C7"/>
<path d="M54.4268 24.5208H53.4852V25.6944H54.4268V24.5208Z" fill="#C7C7C7"/>
<path d="M54.4268 26.5135H53.4852V27.6872H54.4268V26.5135Z" fill="#C7C7C7"/>
<path d="M54.4268 28.5078H53.4852V29.6815H54.4268V28.5078Z" fill="#C7C7C7"/>
<path d="M54.4268 30.5021H53.4852V31.6758H54.4268V30.5021Z" fill="#C7C7C7"/>
<path d="M54.4268 32.4963H53.4852V33.67H54.4268V32.4963Z" fill="#C7C7C7"/>
<path d="M54.4268 34.4891H53.4852V35.6628H54.4268V34.4891Z" fill="#C7C7C7"/>
<path d="M54.4268 36.4834H53.4852V37.6571H54.4268V36.4834Z" fill="#C7C7C7"/>
<path d="M54.4268 38.4778H53.4852V39.6515H54.4268V38.4778Z" fill="#C7C7C7"/>
<path d="M54.4268 40.4705H53.4852V41.6442H54.4268V40.4705Z" fill="#C7C7C7"/>
<path d="M54.4268 42.4647H53.4852V43.6384H54.4268V42.4647Z" fill="#C7C7C7"/>
<path d="M54.4268 44.4591H53.4852V45.6328H54.4268V44.4591Z" fill="#C7C7C7"/>
<path d="M54.4268 46.4534H53.4852V47.6271H54.4268V46.4534Z" fill="#C7C7C7"/>
<path d="M54.6815 21.7075H55.623V20.5338H54.6815V21.7075Z" fill="#C7C7C7"/>
<path d="M16.5591 17.8752H9.61853V50.2904H16.5591V17.8752Z" fill="#EBEBEB"/>
<path d="M16.5591 17.1659H9.45081V17.8753H16.5591V17.1659Z" fill="#C7C7C7"/>
<path d="M10.9486 18.9215H10.2457V50.292H10.9486V18.9215Z" fill="white"/>
<path d="M12.1932 18.9215H11.4903V50.292H12.1932V18.9215Z" fill="white"/>
<path d="M13.4394 18.9215H12.7365V50.292H13.4394V18.9215Z" fill="white"/>
<path d="M14.6857 18.9215H13.9828V50.292H14.6857V18.9215Z" fill="white"/>
<path d="M15.9303 18.9215H15.2274V50.292H15.9303V18.9215Z" fill="white"/>
<path d="M10.9486 19.818H10.2457V21.219H10.9486V19.818Z" fill="#EBEBEB"/>
<path d="M12.1932 19.818H11.4903V21.219H12.1932V19.818Z" fill="#EBEBEB"/>
<path d="M13.4394 19.818H12.7365V21.219H13.4394V19.818Z" fill="#EBEBEB"/>
<path d="M14.6857 19.818H13.9828V21.219H14.6857V19.818Z" fill="#EBEBEB"/>
<path d="M15.9303 19.818H15.2274V21.219H15.9303V19.818Z" fill="#EBEBEB"/>
<path d="M10.9486 22.0944H10.2457V23.4954H10.9486V22.0944Z" fill="#EBEBEB"/>
<path d="M12.1932 22.0944H11.4903V23.4954H12.1932V22.0944Z" fill="#EBEBEB"/>
<path d="M13.4394 22.0944H12.7365V23.4954H13.4394V22.0944Z" fill="#EBEBEB"/>
<path d="M14.6857 22.0944H13.9828V23.4954H14.6857V22.0944Z" fill="#EBEBEB"/>
<path d="M15.9303 22.0944H15.2274V23.4954H15.9303V22.0944Z" fill="#EBEBEB"/>
<path d="M10.9486 24.3708H10.2457V25.7719H10.9486V24.3708Z" fill="#EBEBEB"/>
<path d="M12.1932 24.3708H11.4903V25.7719H12.1932V24.3708Z" fill="#EBEBEB"/>
<path d="M13.4394 24.3708H12.7365V25.7719H13.4394V24.3708Z" fill="#EBEBEB"/>
<path d="M14.6857 24.3708H13.9828V25.7719H14.6857V24.3708Z" fill="#EBEBEB"/>
<path d="M15.9303 24.3708H15.2274V25.7719H15.9303V24.3708Z" fill="#EBEBEB"/>
<path d="M10.9486 26.6489H10.2457V28.0499H10.9486V26.6489Z" fill="#EBEBEB"/>
<path d="M12.1932 26.6489H11.4903V28.0499H12.1932V26.6489Z" fill="#EBEBEB"/>
<path d="M13.4394 26.6489H12.7365V28.0499H13.4394V26.6489Z" fill="#EBEBEB"/>
<path d="M14.6857 26.6489H13.9828V28.0499H14.6857V26.6489Z" fill="#EBEBEB"/>
<path d="M15.9303 26.6489H15.2274V28.0499H15.9303V26.6489Z" fill="#EBEBEB"/>
<path d="M10.9486 28.9254H10.2457V30.3264H10.9486V28.9254Z" fill="#EBEBEB"/>
<path d="M12.1932 28.9254H11.4903V30.3264H12.1932V28.9254Z" fill="#EBEBEB"/>
<path d="M13.4394 28.9254H12.7365V30.3264H13.4394V28.9254Z" fill="#EBEBEB"/>
<path d="M14.6857 28.9254H13.9828V30.3264H14.6857V28.9254Z" fill="#EBEBEB"/>
<path d="M15.9303 28.9254H15.2274V30.3264H15.9303V28.9254Z" fill="#EBEBEB"/>
<path d="M10.9486 31.2018H10.2457V32.6028H10.9486V31.2018Z" fill="#EBEBEB"/>
<path d="M12.1932 31.2018H11.4903V32.6028H12.1932V31.2018Z" fill="#EBEBEB"/>
<path d="M13.4394 31.2018H12.7365V32.6028H13.4394V31.2018Z" fill="#EBEBEB"/>
<path d="M14.6857 31.2018H13.9828V32.6028H14.6857V31.2018Z" fill="#EBEBEB"/>
<path d="M15.9303 31.2018H15.2274V32.6028H15.9303V31.2018Z" fill="#EBEBEB"/>
<path d="M10.9486 33.4783H10.2457V34.8793H10.9486V33.4783Z" fill="#EBEBEB"/>
<path d="M12.1932 33.4783H11.4903V34.8793H12.1932V33.4783Z" fill="#EBEBEB"/>
<path d="M13.4394 33.4783H12.7365V34.8793H13.4394V33.4783Z" fill="#EBEBEB"/>
<path d="M14.6857 33.4783H13.9828V34.8793H14.6857V33.4783Z" fill="#EBEBEB"/>
<path d="M15.9303 33.4783H15.2274V34.8793H15.9303V33.4783Z" fill="#EBEBEB"/>
<path d="M10.9486 35.7563H10.2457V37.1574H10.9486V35.7563Z" fill="#EBEBEB"/>
<path d="M12.1932 35.7563H11.4903V37.1574H12.1932V35.7563Z" fill="#EBEBEB"/>
<path d="M13.4394 35.7563H12.7365V37.1574H13.4394V35.7563Z" fill="#EBEBEB"/>
<path d="M14.6857 35.7563H13.9828V37.1574H14.6857V35.7563Z" fill="#EBEBEB"/>
<path d="M15.9303 35.7563H15.2274V37.1574H15.9303V35.7563Z" fill="#EBEBEB"/>
<path d="M10.9486 38.0327H10.2457V39.4337H10.9486V38.0327Z" fill="#EBEBEB"/>
<path d="M12.1932 38.0327H11.4903V39.4337H12.1932V38.0327Z" fill="#EBEBEB"/>
<path d="M13.4394 38.0327H12.7365V39.4337H13.4394V38.0327Z" fill="#EBEBEB"/>
<path d="M14.6857 38.0327H13.9828V39.4337H14.6857V38.0327Z" fill="#EBEBEB"/>
<path d="M15.9303 38.0327H15.2274V39.4337H15.9303V38.0327Z" fill="#EBEBEB"/>
<path d="M10.9486 40.3092H10.2457V41.7102H10.9486V40.3092Z" fill="#EBEBEB"/>
<path d="M12.1932 40.3092H11.4903V41.7102H12.1932V40.3092Z" fill="#EBEBEB"/>
<path d="M13.4394 40.3092H12.7365V41.7102H13.4394V40.3092Z" fill="#EBEBEB"/>
<path d="M14.6857 40.3092H13.9828V41.7102H14.6857V40.3092Z" fill="#EBEBEB"/>
<path d="M15.9303 40.3092H15.2274V41.7102H15.9303V40.3092Z" fill="#EBEBEB"/>
<path d="M10.9486 42.5873H10.2457V43.9883H10.9486V42.5873Z" fill="#EBEBEB"/>
<path d="M12.1932 42.5873H11.4903V43.9883H12.1932V42.5873Z" fill="#EBEBEB"/>
<path d="M13.4394 42.5873H12.7365V43.9883H13.4394V42.5873Z" fill="#EBEBEB"/>
<path d="M14.6857 42.5873H13.9828V43.9883H14.6857V42.5873Z" fill="#EBEBEB"/>
<path d="M15.9303 42.5873H15.2274V43.9883H15.9303V42.5873Z" fill="#EBEBEB"/>
<path d="M10.9486 44.8638H10.2457V46.2648H10.9486V44.8638Z" fill="#EBEBEB"/>
<path d="M12.1932 44.8638H11.4903V46.2648H12.1932V44.8638Z" fill="#EBEBEB"/>
<path d="M13.4394 44.8638H12.7365V46.2648H13.4394V44.8638Z" fill="#EBEBEB"/>
<path d="M14.6857 44.8638H13.9828V46.2648H14.6857V44.8638Z" fill="#EBEBEB"/>
<path d="M15.9303 44.8638H15.2274V46.2648H15.9303V44.8638Z" fill="#EBEBEB"/>
<path d="M10.9486 47.1401H10.2457V48.5412H10.9486V47.1401Z" fill="#EBEBEB"/>
<path d="M12.1932 47.1401H11.4903V48.5412H12.1932V47.1401Z" fill="#EBEBEB"/>
<path d="M13.4394 47.1401H12.7365V48.5412H13.4394V47.1401Z" fill="#EBEBEB"/>
<path d="M14.6857 47.1401H13.9828V48.5412H14.6857V47.1401Z" fill="#EBEBEB"/>
<path d="M15.9303 47.1401H15.2274V48.5412H15.9303V47.1401Z" fill="#EBEBEB"/>
<path d="M10.9486 49.4166H10.2457V50.2904H10.9486V49.4166Z" fill="#EBEBEB"/>
<path d="M12.1932 49.4166H11.4903V50.2904H12.1932V49.4166Z" fill="#EBEBEB"/>
<path d="M13.4394 49.4166H12.7365V50.2904H13.4394V49.4166Z" fill="#EBEBEB"/>
<path d="M14.6857 49.4166H13.9828V50.2904H14.6857V49.4166Z" fill="#EBEBEB"/>
<path d="M15.9303 49.4166H15.2274V50.2904H15.9303V49.4166Z" fill="#EBEBEB"/>
<path d="M21.0152 17.8752H16.5591V50.2904H21.0152V17.8752Z" fill="#DBDBDB"/>
<path d="M21.2087 17.1659H16.5591V17.8753H21.2087V17.1659Z" fill="#C7C7C7"/>
<path d="M17.8892 18.9215H17.1863V50.292H17.8892V18.9215Z" fill="#C7C7C7"/>
<path d="M19.1354 18.9215H18.4324V50.292H19.1354V18.9215Z" fill="#C7C7C7"/>
<path d="M20.3816 18.9215H19.6787V50.292H20.3816V18.9215Z" fill="#C7C7C7"/>
<path d="M17.8892 19.818H17.1863V21.219H17.8892V19.818Z" fill="#DBDBDB"/>
<path d="M19.1354 19.818H18.4324V21.219H19.1354V19.818Z" fill="#DBDBDB"/>
<path d="M20.3816 19.818H19.6787V21.219H20.3816V19.818Z" fill="#DBDBDB"/>
<path d="M17.8892 22.0944H17.1863V23.4954H17.8892V22.0944Z" fill="#DBDBDB"/>
<path d="M19.1354 22.0944H18.4324V23.4954H19.1354V22.0944Z" fill="#DBDBDB"/>
<path d="M20.3816 22.0944H19.6787V23.4954H20.3816V22.0944Z" fill="#DBDBDB"/>
<path d="M17.8892 24.3708H17.1863V25.7719H17.8892V24.3708Z" fill="#DBDBDB"/>
<path d="M19.1354 24.3708H18.4324V25.7719H19.1354V24.3708Z" fill="#DBDBDB"/>
<path d="M20.3816 24.3708H19.6787V25.7719H20.3816V24.3708Z" fill="#DBDBDB"/>
<path d="M17.8892 26.6489H17.1863V28.0499H17.8892V26.6489Z" fill="#DBDBDB"/>
<path d="M19.1354 26.6489H18.4324V28.0499H19.1354V26.6489Z" fill="#DBDBDB"/>
<path d="M20.3816 26.6489H19.6787V28.0499H20.3816V26.6489Z" fill="#DBDBDB"/>
<path d="M17.8892 28.9254H17.1863V30.3264H17.8892V28.9254Z" fill="#DBDBDB"/>
<path d="M19.1354 28.9254H18.4324V30.3264H19.1354V28.9254Z" fill="#DBDBDB"/>
<path d="M20.3816 28.9254H19.6787V30.3264H20.3816V28.9254Z" fill="#DBDBDB"/>
<path d="M17.8892 31.2018H17.1863V32.6028H17.8892V31.2018Z" fill="#DBDBDB"/>
<path d="M19.1354 31.2018H18.4324V32.6028H19.1354V31.2018Z" fill="#DBDBDB"/>
<path d="M20.3816 31.2018H19.6787V32.6028H20.3816V31.2018Z" fill="#DBDBDB"/>
<path d="M17.8892 33.4783H17.1863V34.8793H17.8892V33.4783Z" fill="#DBDBDB"/>
<path d="M19.1354 33.4783H18.4324V34.8793H19.1354V33.4783Z" fill="#DBDBDB"/>
<path d="M20.3816 33.4783H19.6787V34.8793H20.3816V33.4783Z" fill="#DBDBDB"/>
<path d="M17.8892 35.7563H17.1863V37.1574H17.8892V35.7563Z" fill="#DBDBDB"/>
<path d="M19.1354 35.7563H18.4324V37.1574H19.1354V35.7563Z" fill="#DBDBDB"/>
<path d="M20.3816 35.7563H19.6787V37.1574H20.3816V35.7563Z" fill="#DBDBDB"/>
<path d="M17.8892 38.0327H17.1863V39.4337H17.8892V38.0327Z" fill="#DBDBDB"/>
<path d="M19.1354 38.0327H18.4324V39.4337H19.1354V38.0327Z" fill="#DBDBDB"/>
<path d="M20.3816 38.0327H19.6787V39.4337H20.3816V38.0327Z" fill="#DBDBDB"/>
<path d="M17.8892 40.3092H17.1863V41.7102H17.8892V40.3092Z" fill="#DBDBDB"/>
<path d="M19.1354 40.3092H18.4324V41.7102H19.1354V40.3092Z" fill="#DBDBDB"/>
<path d="M20.3816 40.3092H19.6787V41.7102H20.3816V40.3092Z" fill="#DBDBDB"/>
<path d="M17.8892 42.5873H17.1863V43.9883H17.8892V42.5873Z" fill="#DBDBDB"/>
<path d="M19.1354 42.5873H18.4324V43.9883H19.1354V42.5873Z" fill="#DBDBDB"/>
<path d="M20.3816 42.5873H19.6787V43.9883H20.3816V42.5873Z" fill="#DBDBDB"/>
<path d="M17.8892 44.8638H17.1863V46.2648H17.8892V44.8638Z" fill="#DBDBDB"/>
<path d="M19.1354 44.8638H18.4324V46.2648H19.1354V44.8638Z" fill="#DBDBDB"/>
<path d="M20.3816 44.8638H19.6787V46.2648H20.3816V44.8638Z" fill="#DBDBDB"/>
<path d="M17.8892 47.1401H17.1863V48.5412H17.8892V47.1401Z" fill="#DBDBDB"/>
<path d="M19.1354 47.1401H18.4324V48.5412H19.1354V47.1401Z" fill="#DBDBDB"/>
<path d="M20.3816 47.1401H19.6787V48.5412H20.3816V47.1401Z" fill="#DBDBDB"/>
<path d="M17.8892 49.4166H17.1863V50.2904H17.8892V49.4166Z" fill="#DBDBDB"/>
<path d="M19.1354 49.4166H18.4324V50.2904H19.1354V49.4166Z" fill="#DBDBDB"/>
<path d="M20.3816 49.4166H19.6787V50.2904H20.3816V49.4166Z" fill="#DBDBDB"/>
<path d="M7.81604 29.7878H0.90448V50.2904H7.81604V29.7878Z" fill="#EBEBEB"/>
<path d="M7.8144 28.0499H1.88629V29.7879H7.8144V28.0499Z" fill="#C7C7C7"/>
<path d="M7.05831 30.6956H1.66223V50.2904H7.05831V30.6956Z" fill="#DBDBDB"/>
<path d="M7.05831 32.5657H1.66223V33.0284H7.05831V32.5657Z" fill="white"/>
<path d="M7.05831 34.4827H1.66223V34.9454H7.05831V34.4827Z" fill="white"/>
<path d="M7.05831 36.4011H1.66223V36.8638H7.05831V36.4011Z" fill="white"/>
<path d="M7.05831 38.3198H1.66223V38.7825H7.05831V38.3198Z" fill="white"/>
<path d="M7.05831 40.2367H1.66223V40.6994H7.05831V40.2367Z" fill="white"/>
<path d="M7.05831 42.1552H1.66223V42.6179H7.05831V42.1552Z" fill="white"/>
<path d="M7.05831 44.0737H1.66223V44.5364H7.05831V44.0737Z" fill="white"/>
<path d="M7.05831 45.9906H1.66223V46.4533H7.05831V45.9906Z" fill="white"/>
<path d="M7.05831 47.9092H1.66223V48.3719H7.05831V47.9092Z" fill="white"/>
<path d="M7.05831 49.8278H1.66223V50.2905H7.05831V49.8278Z" fill="white"/>
<path d="M12.1448 29.7878H7.81604V50.2904H12.1448V29.7878Z" fill="#DBDBDB"/>
<path d="M11.4951 28.0499H7.81604V29.7879H11.4951V28.0499Z" fill="#A6A6A6"/>
<path d="M11.7418 30.6956H8.4126V50.2904H11.7418V30.6956Z" fill="#C7C7C7"/>
<path d="M11.7418 32.5657H8.4126V33.0284H11.7418V32.5657Z" fill="white"/>
<path d="M11.7418 34.4827H8.4126V34.9454H11.7418V34.4827Z" fill="white"/>
<path d="M11.7418 36.4011H8.4126V36.8638H11.7418V36.4011Z" fill="white"/>
<path d="M11.7418 38.3198H8.4126V38.7825H11.7418V38.3198Z" fill="white"/>
<path d="M11.7418 40.2367H8.4126V40.6994H11.7418V40.2367Z" fill="white"/>
<path d="M11.7418 42.1552H8.4126V42.6179H11.7418V42.1552Z" fill="white"/>
<path d="M11.7418 44.0737H8.4126V44.5364H11.7418V44.0737Z" fill="white"/>
<path d="M11.7418 45.9906H8.4126V46.4533H11.7418V45.9906Z" fill="white"/>
<path d="M11.7418 47.9092H8.4126V48.3719H11.7418V47.9092Z" fill="white"/>
<path d="M11.7418 49.8278H8.4126V50.2905H11.7418V49.8278Z" fill="white"/>
<path d="M25.3392 38.2875H19.9963V50.2904H25.3392V38.2875Z" fill="#DBDBDB"/>
<path d="M21.7811 39.3274H20.8363V40.0626H21.7811V39.3274Z" fill="#C7C7C7"/>
<path d="M21.7811 40.8977H20.8363V41.6329H21.7811V40.8977Z" fill="#C7C7C7"/>
<path d="M21.7811 42.468H20.8363V43.2032H21.7811V42.468Z" fill="#C7C7C7"/>
<path d="M21.7811 44.0382H20.8363V44.7734H21.7811V44.0382Z" fill="#C7C7C7"/>
<path d="M21.7811 45.6101H20.8363V46.3453H21.7811V45.6101Z" fill="#C7C7C7"/>
<path d="M21.7811 47.1804H20.8363V47.9156H21.7811V47.1804Z" fill="#C7C7C7"/>
<path d="M21.7811 48.7509H20.8363V49.486H21.7811V48.7509Z" fill="#C7C7C7"/>
<path d="M23.1433 39.3274H22.197V40.0626H23.1433V39.3274Z" fill="#C7C7C7"/>
<path d="M23.1433 40.8977H22.197V41.6329H23.1433V40.8977Z" fill="#C7C7C7"/>
<path d="M23.1433 42.468H22.197V43.2032H23.1433V42.468Z" fill="#C7C7C7"/>
<path d="M23.1433 44.0382H22.197V44.7734H23.1433V44.0382Z" fill="#C7C7C7"/>
<path d="M23.1433 45.6101H22.197V46.3453H23.1433V45.6101Z" fill="#C7C7C7"/>
<path d="M23.1433 47.1804H22.197V47.9156H23.1433V47.1804Z" fill="#C7C7C7"/>
<path d="M23.1433 48.7509H22.197V49.486H23.1433V48.7509Z" fill="#C7C7C7"/>
<path d="M24.5009 39.3274H23.5545V40.0626H24.5009V39.3274Z" fill="#C7C7C7"/>
<path d="M24.5009 40.8977H23.5545V41.6329H24.5009V40.8977Z" fill="#C7C7C7"/>
<path d="M24.5009 42.468H23.5545V43.2032H24.5009V42.468Z" fill="#C7C7C7"/>
<path d="M24.5009 44.0382H23.5545V44.7734H24.5009V44.0382Z" fill="#C7C7C7"/>
<path d="M24.5009 45.6101H23.5545V46.3453H24.5009V45.6101Z" fill="#C7C7C7"/>
<path d="M24.5009 47.1804H23.5545V47.9156H24.5009V47.1804Z" fill="#C7C7C7"/>
<path d="M24.5009 48.7509H23.5545V49.486H24.5009V48.7509Z" fill="#C7C7C7"/>
<path d="M29.0876 38.2875H25.3392V50.2904H29.0876V38.2875Z" fill="#A6A6A6"/>
<path d="M27.9365 49.3699H28.7055V48.6347H27.9365V49.3699Z" fill="#C7C7C7"/>
<path d="M27.9365 47.798H28.7055V47.0628H27.9365V47.798Z" fill="#C7C7C7"/>
<path d="M27.9365 46.2277H28.7055V45.4925H27.9365V46.2277Z" fill="#C7C7C7"/>
<path d="M27.9365 44.6558H28.7055V43.9206H27.9365V44.6558Z" fill="#C7C7C7"/>
<path d="M27.9365 43.087H28.7055V42.3519H27.9365V43.087Z" fill="#C7C7C7"/>
<path d="M27.9365 41.5151H28.7055V40.78H27.9365V41.5151Z" fill="#C7C7C7"/>
<path d="M27.9365 39.9448H28.7055V39.2097H27.9365V39.9448Z" fill="#C7C7C7"/>
<path d="M26.8289 49.3699H27.5979V48.6347H26.8289V49.3699Z" fill="#C7C7C7"/>
<path d="M26.8289 47.798H27.5979V47.0628H26.8289V47.798Z" fill="#C7C7C7"/>
<path d="M26.8289 46.2277H27.5979V45.4925H26.8289V46.2277Z" fill="#C7C7C7"/>
<path d="M26.8289 44.6558H27.5979V43.9206H26.8289V44.6558Z" fill="#C7C7C7"/>
<path d="M26.8289 43.087H27.5979V42.3519H26.8289V43.087Z" fill="#C7C7C7"/>
<path d="M26.8289 41.5151H27.5979V40.78H26.8289V41.5151Z" fill="#C7C7C7"/>
<path d="M26.8289 39.9448H27.5979V39.2097H26.8289V39.9448Z" fill="#C7C7C7"/>
<path d="M25.7245 49.3699H26.4935V48.6347H25.7245V49.3699Z" fill="#C7C7C7"/>
<path d="M25.7245 47.798H26.4935V47.0628H25.7245V47.798Z" fill="#C7C7C7"/>
<path d="M25.7245 46.2277H26.4935V45.4925H25.7245V46.2277Z" fill="#C7C7C7"/>
<path d="M25.7245 44.6558H26.4935V43.9206H25.7245V44.6558Z" fill="#C7C7C7"/>
<path d="M25.7245 43.087H26.4935V42.3519H25.7245V43.087Z" fill="#C7C7C7"/>
<path d="M25.7245 41.5151H26.4935V40.78H25.7245V41.5151Z" fill="#C7C7C7"/>
<path d="M25.7245 39.9448H26.4935V39.2097H25.7245V39.9448Z" fill="#C7C7C7"/>
<path d="M61.398 24.5208H57.7061V28.8818H61.398V24.5208Z" fill="#DBDBDB"/>
<path d="M63.7389 24.5208H61.398V29.0414H63.7389V24.5208Z" fill="#C7C7C7"/>
<path d="M63.8937 26.4458H61.5705V29.0415H63.8937V26.4458Z" fill="#DBDBDB"/>
<path d="M65.3431 26.4458H63.8937V29.0415H65.3431V26.4458Z" fill="#C7C7C7"/>
<path d="M62.2589 28.5964H56.2905V50.2904H62.2589V28.5964Z" fill="#EBEBEB"/>
<path d="M58.849 29.53H56.9724V30.2974H58.849V29.53Z" fill="white"/>
<path d="M61.2497 29.53H59.373V30.2974H61.2497V29.53Z" fill="white"/>
<path d="M58.849 30.8326H56.9724V31.6001H58.849V30.8326Z" fill="white"/>
<path d="M61.2497 30.8326H59.373V31.6001H61.2497V30.8326Z" fill="white"/>
<path d="M58.849 32.1337H56.9724V32.9011H58.849V32.1337Z" fill="white"/>
<path d="M61.2497 32.1337H59.373V32.9011H61.2497V32.1337Z" fill="white"/>
<path d="M58.849 33.4363H56.9724V34.2037H58.849V33.4363Z" fill="white"/>
<path d="M61.2497 33.4363H59.373V34.2037H61.2497V33.4363Z" fill="white"/>
<path d="M58.849 34.7374H56.9724V35.5048H58.849V34.7374Z" fill="white"/>
<path d="M61.2497 34.7374H59.373V35.5048H61.2497V34.7374Z" fill="white"/>
<path d="M58.849 36.04H56.9724V36.8075H58.849V36.04Z" fill="white"/>
<path d="M61.2497 36.04H59.373V36.8075H61.2497V36.04Z" fill="white"/>
<path d="M58.849 37.3428H56.9724V38.1102H58.849V37.3428Z" fill="white"/>
<path d="M61.2497 37.3428H59.373V38.1102H61.2497V37.3428Z" fill="white"/>
<path d="M58.849 38.6437H56.9724V39.4111H58.849V38.6437Z" fill="white"/>
<path d="M61.2497 38.6437H59.373V39.4111H61.2497V38.6437Z" fill="white"/>
<path d="M58.849 39.9464H56.9724V40.7138H58.849V39.9464Z" fill="white"/>
<path d="M61.2497 39.9464H59.373V40.7138H61.2497V39.9464Z" fill="white"/>
<path d="M58.849 41.2491H56.9724V42.0166H58.849V41.2491Z" fill="white"/>
<path d="M61.2497 41.2491H59.373V42.0166H61.2497V41.2491Z" fill="white"/>
<path d="M58.849 42.5502H56.9724V43.3176H58.849V42.5502Z" fill="white"/>
<path d="M61.2497 42.5502H59.373V43.3176H61.2497V42.5502Z" fill="white"/>
<path d="M58.849 43.8528H56.9724V44.6202H58.849V43.8528Z" fill="white"/>
<path d="M61.2497 43.8528H59.373V44.6202H61.2497V43.8528Z" fill="white"/>
<path d="M58.849 45.1555H56.9724V45.9229H58.849V45.1555Z" fill="white"/>
<path d="M61.2497 45.1555H59.373V45.9229H61.2497V45.1555Z" fill="white"/>
<path d="M58.849 46.4567H56.9724V47.2241H58.849V46.4567Z" fill="white"/>
<path d="M61.2497 46.4567H59.373V47.2241H61.2497V46.4567Z" fill="white"/>
<path d="M67.0956 28.5964H62.2589V50.2904H67.0956V28.5964Z" fill="#C7C7C7"/>
<path d="M65.069 47.224H66.6103V46.4566H65.069V47.224Z" fill="#EBEBEB"/>
<path d="M63.0989 47.224H64.6402V46.4566H63.0989V47.224Z" fill="#EBEBEB"/>
<path d="M65.069 45.9213H66.6103V45.1539H65.069V45.9213Z" fill="#EBEBEB"/>
<path d="M63.0989 45.9213H64.6402V45.1539H63.0989V45.9213Z" fill="#EBEBEB"/>
<path d="M65.069 44.6202H66.6103V43.8528H65.069V44.6202Z" fill="#EBEBEB"/>
<path d="M63.0989 44.6202H64.6402V43.8528H63.0989V44.6202Z" fill="#EBEBEB"/>
<path d="M65.069 43.3176H66.6103V42.5502H65.069V43.3176Z" fill="#EBEBEB"/>
<path d="M63.0989 43.3176H64.6402V42.5502H63.0989V43.3176Z" fill="#EBEBEB"/>
<path d="M65.069 42.0149H66.6103V41.2475H65.069V42.0149Z" fill="#EBEBEB"/>
<path d="M63.0989 42.0149H64.6402V41.2475H63.0989V42.0149Z" fill="#EBEBEB"/>
<path d="M65.069 40.7139H66.6103V39.9465H65.069V40.7139Z" fill="#EBEBEB"/>
<path d="M63.0989 40.7139H64.6402V39.9465H63.0989V40.7139Z" fill="#EBEBEB"/>
<path d="M65.069 39.4128H66.6103V38.6454H65.069V39.4128Z" fill="#EBEBEB"/>
<path d="M63.0989 39.4128H64.6402V38.6454H63.0989V39.4128Z" fill="#EBEBEB"/>
<path d="M65.069 38.1085H66.6103V37.3411H65.069V38.1085Z" fill="#EBEBEB"/>
<path d="M63.0989 38.1085H64.6402V37.3411H63.0989V38.1085Z" fill="#EBEBEB"/>
<path d="M65.069 36.8075H66.6103V36.0401H65.069V36.8075Z" fill="#EBEBEB"/>
<path d="M63.0989 36.8075H64.6402V36.0401H63.0989V36.8075Z" fill="#EBEBEB"/>
<path d="M65.069 35.5063H66.6103V34.7389H65.069V35.5063Z" fill="#EBEBEB"/>
<path d="M63.0989 35.5063H64.6402V34.7389H63.0989V35.5063Z" fill="#EBEBEB"/>
<path d="M65.069 34.2021H66.6103V33.4347H65.069V34.2021Z" fill="#EBEBEB"/>
<path d="M63.0989 34.2021H64.6402V33.4347H63.0989V34.2021Z" fill="#EBEBEB"/>
<path d="M65.069 32.9011H66.6103V32.1337H65.069V32.9011Z" fill="#EBEBEB"/>
<path d="M63.0989 32.9011H64.6402V32.1337H63.0989V32.9011Z" fill="#EBEBEB"/>
<path d="M65.069 31.5984H66.6103V30.831H65.069V31.5984Z" fill="#EBEBEB"/>
<path d="M63.0989 31.5984H64.6402V30.831H63.0989V31.5984Z" fill="#EBEBEB"/>
<path d="M65.069 30.2958H66.6103V29.5284H65.069V30.2958Z" fill="#EBEBEB"/>
<path d="M63.0989 30.2958H64.6402V29.5284H63.0989V30.2958Z" fill="#EBEBEB"/>
<path d="M40.6987 36.1545H33.6582V50.2904H40.6987V36.1545Z" fill="#C7C7C7"/>
<path d="M36.0121 37.3782H34.7659V38.2439H36.0121V37.3782Z" fill="#DBDBDB"/>
<path d="M36.0121 39.229H34.7659V40.0948H36.0121V39.229Z" fill="#DBDBDB"/>
<path d="M36.0121 41.0782H34.7659V41.944H36.0121V41.0782Z" fill="#DBDBDB"/>
<path d="M36.0121 42.9274H34.7659V43.7931H36.0121V42.9274Z" fill="#DBDBDB"/>
<path d="M36.0121 44.7782H34.7659V45.644H36.0121V44.7782Z" fill="#DBDBDB"/>
<path d="M36.0121 46.6276H34.7659V47.4933H36.0121V46.6276Z" fill="#DBDBDB"/>
<path d="M36.0121 48.4767H34.7659V49.3424H36.0121V48.4767Z" fill="#DBDBDB"/>
<path d="M37.8048 37.3782H36.5586V38.2439H37.8048V37.3782Z" fill="#DBDBDB"/>
<path d="M37.8048 39.229H36.5586V40.0948H37.8048V39.229Z" fill="#DBDBDB"/>
<path d="M37.8048 41.0782H36.5586V41.944H37.8048V41.0782Z" fill="#DBDBDB"/>
<path d="M37.8048 42.9274H36.5586V43.7931H37.8048V42.9274Z" fill="#DBDBDB"/>
<path d="M37.8048 44.7782H36.5586V45.644H37.8048V44.7782Z" fill="#DBDBDB"/>
<path d="M37.8048 46.6276H36.5586V47.4933H37.8048V46.6276Z" fill="#DBDBDB"/>
<path d="M37.8048 48.4767H36.5586V49.3424H37.8048V48.4767Z" fill="#DBDBDB"/>
<path d="M39.5928 37.3782H38.3466V38.2439H39.5928V37.3782Z" fill="#DBDBDB"/>
<path d="M39.5928 39.229H38.3466V40.0948H39.5928V39.229Z" fill="#DBDBDB"/>
<path d="M39.5928 41.0782H38.3466V41.944H39.5928V41.0782Z" fill="#DBDBDB"/>
<path d="M39.5928 42.9274H38.3466V43.7931H39.5928V42.9274Z" fill="#DBDBDB"/>
<path d="M39.5928 44.7782H38.3466V45.644H39.5928V44.7782Z" fill="#DBDBDB"/>
<path d="M39.5928 46.6276H38.3466V47.4933H39.5928V46.6276Z" fill="#DBDBDB"/>
<path d="M39.5928 48.4767H38.3466V49.3424H39.5928V48.4767Z" fill="#DBDBDB"/>
<path d="M40.6987 34.6826H36.012V36.1562H40.6987V34.6826Z" fill="#DBDBDB"/>
<path d="M40.6988 33.7701H37.7275V34.6827H40.6988V33.7701Z" fill="#EBEBEB"/>
<path d="M45.6386 36.1545H40.6987V50.2904H45.6386V36.1545Z" fill="#A6A6A6"/>
<path d="M44.1199 49.2054H45.134V48.3397H44.1199V49.2054Z" fill="#C7C7C7"/>
<path d="M44.1199 47.3562H45.134V46.4904H44.1199V47.3562Z" fill="#C7C7C7"/>
<path d="M44.1199 45.5054H45.134V44.6396H44.1199V45.5054Z" fill="#C7C7C7"/>
<path d="M44.1199 43.6545H45.134V42.7888H44.1199V43.6545Z" fill="#C7C7C7"/>
<path d="M44.1199 41.8069H45.134V40.9411H44.1199V41.8069Z" fill="#C7C7C7"/>
<path d="M44.1199 39.9561H45.134V39.0903H44.1199V39.9561Z" fill="#C7C7C7"/>
<path d="M44.1199 38.1069H45.134V37.2412H44.1199V38.1069Z" fill="#C7C7C7"/>
<path d="M42.6608 49.2054H43.6749V48.3397H42.6608V49.2054Z" fill="#C7C7C7"/>
<path d="M42.6608 47.3562H43.6749V46.4904H42.6608V47.3562Z" fill="#C7C7C7"/>
<path d="M42.6608 45.5054H43.6749V44.6396H42.6608V45.5054Z" fill="#C7C7C7"/>
<path d="M42.6608 43.6545H43.6749V42.7888H42.6608V43.6545Z" fill="#C7C7C7"/>
<path d="M42.6608 41.8069H43.6749V40.9411H42.6608V41.8069Z" fill="#C7C7C7"/>
<path d="M42.6608 39.9561H43.6749V39.0903H42.6608V39.9561Z" fill="#C7C7C7"/>
<path d="M42.6608 38.1069H43.6749V37.2412H42.6608V38.1069Z" fill="#C7C7C7"/>
<path d="M41.205 49.2054H42.2191V48.3397H41.205V49.2054Z" fill="#C7C7C7"/>
<path d="M41.205 47.3562H42.2191V46.4904H41.205V47.3562Z" fill="#C7C7C7"/>
<path d="M41.205 45.5054H42.2191V44.6396H41.205V45.5054Z" fill="#C7C7C7"/>
<path d="M41.205 43.6545H42.2191V42.7888H41.205V43.6545Z" fill="#C7C7C7"/>
<path d="M41.205 41.8069H42.2191V40.9411H41.205V41.8069Z" fill="#C7C7C7"/>
<path d="M41.205 39.9561H42.2191V39.0903H41.205V39.9561Z" fill="#C7C7C7"/>
<path d="M41.205 38.1069H42.2191V37.2412H41.205V38.1069Z" fill="#C7C7C7"/>
<path d="M44.8905 34.6826H40.6987V36.1562H44.8905V34.6826Z" fill="#C7C7C7"/>
<path d="M42.9703 33.7701H40.6987V34.6827H42.9703V33.7701Z" fill="#DBDBDB"/>
<path d="M34 70.0947C50.8838 70.0947 64.5708 68.9824 64.5708 67.6103C64.5708 66.2382 50.8838 65.1259 34 65.1259C17.1162 65.1259 3.4292 66.2382 3.4292 67.6103C3.4292 68.9824 17.1162 70.0947 34 70.0947Z" fill="#EBEBEB"/>
<path d="M0 51.4623L8.4996 51.4236L17.0008 51.4091L34 51.3817L50.9992 51.4091L59.5004 51.422L68 51.4623L59.5004 51.501L50.9992 51.5155L34 51.5429L17.0008 51.5155L8.4996 51.501L0 51.4623Z" fill="#263238"/>
<path d="M67.6357 50.2903H0.362793V51.4624H67.6357V50.2903Z" fill="#C7C7C7"/>
<path d="M5.08008 50.2903C5.18539 50.6739 5.18539 51.0788 5.08008 51.4624C5.02341 51.2726 4.99622 51.0752 4.99947 50.8771C4.9968 50.6786 5.02398 50.4808 5.08008 50.2903Z" fill="#263238"/>
<path d="M10.3375 50.2903C10.3936 50.4808 10.4208 50.6786 10.4181 50.8771C10.4214 51.0752 10.3942 51.2726 10.3375 51.4624C10.2322 51.0788 10.2322 50.6739 10.3375 50.2903Z" fill="#263238"/>
<path d="M15.5966 50.2903C15.7019 50.6739 15.7019 51.0788 15.5966 51.4624C15.5399 51.2726 15.5128 51.0752 15.516 50.8771C15.5133 50.6786 15.5405 50.4808 15.5966 50.2903Z" fill="#263238"/>
<path d="M20.854 50.2903C20.9101 50.4808 20.9373 50.6786 20.9346 50.8771C20.9379 51.0752 20.9107 51.2726 20.854 51.4624C20.7487 51.0788 20.7487 50.6739 20.854 50.2903Z" fill="#263238"/>
<path d="M26.113 50.2903C26.2184 50.6739 26.2184 51.0788 26.113 51.4624C26.0564 51.2726 26.0292 51.0752 26.0324 50.8771C26.0298 50.6786 26.0569 50.4808 26.113 50.2903Z" fill="#263238"/>
<path d="M31.3705 50.2903C31.4266 50.4808 31.4538 50.6786 31.4511 50.8771C31.4543 51.0752 31.4272 51.2726 31.3705 51.4624C31.2652 51.0788 31.2652 50.6739 31.3705 50.2903Z" fill="#263238"/>
<path d="M36.6295 50.2903C36.7348 50.6739 36.7348 51.0788 36.6295 51.4624C36.5728 51.2726 36.5457 51.0752 36.5489 50.8771C36.5462 50.6786 36.5734 50.4808 36.6295 50.2903Z" fill="#263238"/>
<path d="M41.887 50.2903C41.9431 50.4808 41.9702 50.6786 41.9676 50.8771C41.9708 51.0752 41.9436 51.2726 41.887 51.4624C41.7817 51.0788 41.7817 50.6739 41.887 50.2903Z" fill="#263238"/>
<path d="M47.146 50.2903C47.2513 50.6739 47.2513 51.0788 47.146 51.4624C47.0893 51.2726 47.0621 51.0752 47.0654 50.8771C47.0627 50.6786 47.0899 50.4808 47.146 50.2903Z" fill="#263238"/>
<path d="M52.4034 50.2903C52.4595 50.4808 52.4867 50.6786 52.4841 50.8771C52.4873 51.0752 52.4601 51.2726 52.4034 51.4624C52.2981 51.0788 52.2981 50.6739 52.4034 50.2903Z" fill="#263238"/>
<path d="M57.6625 50.2903C57.7678 50.6739 57.7678 51.0788 57.6625 51.4624C57.6058 51.2726 57.5786 51.0752 57.5819 50.8771C57.5792 50.6786 57.6064 50.4808 57.6625 50.2903Z" fill="#263238"/>
<path d="M62.9199 50.2903C62.976 50.4808 63.0031 50.6786 63.0005 50.8771C63.0037 51.0752 62.9765 51.2726 62.9199 51.4624C62.8146 51.0788 62.8146 50.6739 62.9199 50.2903Z" fill="#263238"/>
<path d="M7.94976 50.2902C7.94976 50.2902 7.81433 49.6566 7.54348 49.5599C7.27263 49.4632 7.10657 49.7469 7.10657 49.7469C7.10657 49.7469 7.04369 49.1407 6.65837 48.9602C6.27305 48.7796 5.98608 49.1504 5.98608 49.1504C5.98608 49.1504 5.69104 48.3878 5.16385 48.3878C4.63666 48.3878 4.37225 49.5164 4.37225 49.5164C4.37225 49.5164 4.0611 49.1826 3.74188 49.3713C3.42266 49.5599 3.41943 50.3015 3.41943 50.3015L7.94976 50.2902Z" fill="#37474F"/>
<path d="M52.9048 50.2902C52.9048 50.2902 52.7694 49.6566 52.4985 49.5599C52.2277 49.4632 52.0632 49.7469 52.0632 49.7469C52.0632 49.7469 51.9987 49.1407 51.615 48.9602C51.2313 48.7796 50.9427 49.1504 50.9427 49.1504C50.9427 49.1504 50.6477 48.3878 50.1221 48.3878C49.5965 48.3878 49.3289 49.5164 49.3289 49.5164C49.3289 49.5164 49.0193 49.1826 48.7001 49.3713C48.3809 49.5599 48.3777 50.3015 48.3777 50.3015L52.9048 50.2902Z" fill="#455A64"/>
<path d="M19.9253 50.2902H15.1613C15.1613 50.2902 15.3225 49.6195 15.6336 49.5712C15.7301 49.5617 15.8272 49.5823 15.9115 49.6302C15.9958 49.6781 16.0632 49.751 16.1044 49.8388C16.1044 49.8388 16.0899 48.9021 16.68 48.7425C17.27 48.5829 17.7634 49.41 17.7634 49.41C17.7634 49.41 18.1342 48.9376 18.6372 48.9682C19.1402 48.9988 19.2708 49.7743 19.2708 49.7743C19.2708 49.7743 19.7222 49.5051 19.9253 50.2902Z" fill="#37474F"/>
<path d="M3.71616 50.2903H1.20917C1.20917 50.2903 1.20917 49.9178 1.46067 49.8179C1.5277 49.789 1.60229 49.7826 1.67323 49.7998C1.74418 49.817 1.80763 49.8567 1.85405 49.913C1.85405 49.913 1.95401 49.2262 2.41349 49.2262C2.87297 49.2262 3.09385 49.8179 3.09385 49.8179C3.13282 49.7614 3.18748 49.7175 3.25109 49.6918C3.31469 49.666 3.38445 49.6594 3.45176 49.6728C3.70649 49.705 3.71616 50.2903 3.71616 50.2903Z" fill="#455A64"/>
<path d="M21.8922 50.2903H19.3853C19.3853 50.2903 19.3853 49.9178 19.6368 49.8179C19.7038 49.789 19.7784 49.7826 19.8493 49.7998C19.9203 49.817 19.9837 49.8567 20.0301 49.913C20.0301 49.913 20.1317 49.2262 20.5912 49.2262C21.0507 49.2262 21.2699 49.8179 21.2699 49.8179C21.3089 49.7614 21.3636 49.7175 21.4272 49.6918C21.4908 49.666 21.5605 49.6594 21.6278 49.6728C21.8826 49.705 21.8922 50.2903 21.8922 50.2903Z" fill="#455A64"/>
<path d="M63.1327 50.2903H60.6257C60.6257 50.2903 60.6257 49.9178 60.8772 49.8179C60.9443 49.789 61.0189 49.7826 61.0898 49.7998C61.1607 49.817 61.2242 49.8567 61.2706 49.913C61.2706 49.913 61.3706 49.2262 61.8301 49.2262C62.2895 49.2262 62.5104 49.8179 62.5104 49.8179C62.5492 49.7612 62.6039 49.7173 62.6675 49.6915C62.7312 49.6657 62.801 49.6592 62.8683 49.6728C63.1231 49.705 63.1327 50.2903 63.1327 50.2903Z" fill="#455A64"/>
<path d="M66.7908 50.2902H62.6571C62.6571 50.2902 62.6668 49.6744 63.0731 49.5115C63.1835 49.4651 63.3061 49.4557 63.4223 49.4848C63.5386 49.5139 63.6423 49.5798 63.7179 49.6727C63.7179 49.6727 63.8792 48.5442 64.6417 48.5442C65.4043 48.5442 65.7606 49.5164 65.7606 49.5164C65.8248 49.4231 65.9149 49.3507 66.0197 49.308C66.1246 49.2654 66.2396 49.2543 66.3507 49.2761C66.7747 49.3261 66.7908 50.2902 66.7908 50.2902Z" fill="#37474F"/>
<path d="M48.1633 2.81873H45.4064V4.38096H48.1633V2.81873Z" fill="#263238"/>
<path d="M48.5519 2.29309H45.0163V3.31523H48.5519V2.29309Z" fill="#455A64"/>
<path d="M41.9991 4.36275L41.2479 5.11401L42.4346 6.30076L43.1859 5.5495L41.9991 4.36275Z" fill="#263238"/>
<path d="M41.8215 3.74171L40.6279 4.9353L41.4031 5.71051L42.5967 4.51692L41.8215 3.74171Z" fill="#455A64"/>
<path d="M50.3837 5.54817L51.1349 6.29944L52.3217 5.11269L51.5704 4.36142L50.3837 5.54817Z" fill="#263238"/>
<path d="M50.9697 4.51772L52.1633 5.7113L52.9385 4.9361L51.745 3.74251L50.9697 4.51772Z" fill="#455A64"/>
<path d="M53.306 12.4143C54.1513 8.81072 51.9151 5.20423 48.3115 4.35902C44.7079 3.5138 41.1014 5.74991 40.2562 9.35352C39.411 12.9571 41.6471 16.5636 45.2507 17.4088C48.8543 18.254 52.4608 16.0179 53.306 12.4143Z" fill="#455A64"/>
<path d="M46.7026 17.1691C50.234 17.1691 53.0967 14.3064 53.0967 10.775C53.0967 7.24369 50.234 4.38098 46.7026 4.38098C43.1713 4.38098 40.3086 7.24369 40.3086 10.775C40.3086 14.3064 43.1713 17.1691 46.7026 17.1691Z" fill="#263238"/>
<path d="M52.3709 11.6723C52.8222 8.58601 50.6862 5.71823 47.6 5.2669C44.5137 4.81556 41.6459 6.95158 41.1946 10.0378C40.7433 13.1241 42.8793 15.9919 45.9655 16.4432C49.0518 16.8945 51.9196 14.7585 52.3709 11.6723Z" fill="white"/>
<path opacity="0.5" d="M52.4325 10.8572H46.7897V5.21448C48.2863 5.21448 49.7215 5.80898 50.7798 6.8672C51.838 7.92542 52.4325 9.36068 52.4325 10.8572Z" fill="#FFB803"/>
<path d="M46.8397 5.61914H46.7301V6.47523H46.8397V5.61914Z" fill="#C7C7C7"/>
<path d="M44.2118 6.28991L44.1169 6.34473L44.5449 7.08612L44.6399 7.0313L44.2118 6.28991Z" fill="#C7C7C7"/>
<path d="M42.2735 8.18851L42.2187 8.28345L42.9601 8.71149L43.0149 8.61655L42.2735 8.18851Z" fill="#C7C7C7"/>
<path d="M42.4028 10.8024H41.5468V10.912H42.4028V10.8024Z" fill="#C7C7C7"/>
<path d="M43.1543 13.055L42.4095 13.483L42.4643 13.5784L43.2091 13.1504L43.1543 13.055Z" fill="#C7C7C7"/>
<path d="M44.5455 14.625L44.1178 15.3666L44.2128 15.4213L44.6404 14.6797L44.5455 14.625Z" fill="#C7C7C7"/>
<path d="M46.8397 15.2393H46.7301V16.0953H46.8397V15.2393Z" fill="#C7C7C7"/>
<path d="M49.0217 14.6221L48.9268 14.6769L49.3548 15.4183L49.4497 15.3635L49.0217 14.6221Z" fill="#C7C7C7"/>
<path d="M50.6058 12.9967L50.551 13.0917L51.2924 13.5197L51.3472 13.4248L50.6058 12.9967Z" fill="#C7C7C7"/>
<path d="M52.023 10.8024H51.1669V10.912H52.023V10.8024Z" fill="#C7C7C7"/>
<path d="M51.2927 8.18768L50.5513 8.61572L50.6061 8.71067L51.3475 8.28262L51.2927 8.18768Z" fill="#C7C7C7"/>
<path d="M49.3552 6.29215L48.9274 7.03369L49.0223 7.08847L49.4501 6.34693L49.3552 6.29215Z" fill="#C7C7C7"/>
<path d="M46.8236 6.77029L47.0751 11.1926L46.5076 11.1845L46.6704 6.76868L46.8236 6.77029Z" fill="#FFB803"/>
<path d="M46.9783 10.8572C46.9783 10.8958 46.9668 10.9336 46.9453 10.9657C46.9238 10.9979 46.8932 11.0229 46.8575 11.0376C46.8217 11.0523 46.7824 11.0561 46.7446 11.0484C46.7067 11.0407 46.6719 11.022 46.6447 10.9946C46.6175 10.9671 46.599 10.9322 46.5917 10.8943C46.5843 10.8563 46.5884 10.817 46.6034 10.7814C46.6185 10.7458 46.6437 10.7154 46.676 10.6942C46.7083 10.673 46.7462 10.6618 46.7848 10.6621C46.8104 10.6621 46.8357 10.6672 46.8592 10.677C46.8828 10.6868 46.9042 10.7012 46.9222 10.7194C46.9402 10.7375 46.9544 10.759 46.964 10.7827C46.9737 10.8063 46.9785 10.8317 46.9783 10.8572Z" fill="#FFB803"/>
<path d="M50.8783 10.9233L46.456 11.1732L46.4641 10.6057L50.8799 10.7685L50.8783 10.9233Z" fill="#263238"/>
<path d="M46.9783 10.8572C46.9783 10.8958 46.9668 10.9336 46.9453 10.9657C46.9238 10.9979 46.8932 11.0229 46.8575 11.0376C46.8217 11.0523 46.7824 11.0561 46.7446 11.0484C46.7067 11.0407 46.6719 11.022 46.6447 10.9946C46.6175 10.9671 46.599 10.9322 46.5917 10.8943C46.5843 10.8563 46.5884 10.817 46.6034 10.7814C46.6185 10.7458 46.6437 10.7154 46.676 10.6942C46.7083 10.673 46.7462 10.6618 46.7848 10.6621C46.8104 10.6621 46.8357 10.6672 46.8592 10.677C46.8828 10.6868 46.9042 10.7012 46.9222 10.7194C46.9402 10.7375 46.9544 10.759 46.964 10.7827C46.9737 10.8063 46.9785 10.8317 46.9783 10.8572Z" fill="#FFB803"/>
<path d="M23.8221 22.9956C24.6524 26.1636 25.7342 28.2321 26.4597 28.9479C28.1977 30.6633 31.9412 31.0438 34.0468 31.9176C34.732 32.2029 36.6263 27.8564 35.925 27.4759C35.4075 27.1938 29.3972 26.4328 28.8861 26.2764C28.6233 26.1958 26.629 23.5986 25.5004 22.1379C23.6819 19.7969 23.3675 21.2657 23.8221 22.9956Z" fill="#F7A9A0"/>
<path d="M37.3373 32.5271C37.0148 32.519 37.0035 32.6883 37.4533 33.0607C37.9032 33.4331 39.9974 34.5117 39.5573 35.213C39.1172 35.9143 36.1845 34.3408 35.4832 33.6669C34.7819 32.993 33.8807 31.6581 33.8807 31.6581C34.5143 31.8499 36.0959 32.1675 37.3373 32.5271Z" fill="#F7A9A0"/>
<path d="M35.4188 27.3389C38.54 27.8225 39.7814 28.4336 41.1486 30.0297C41.3047 30.2021 41.3988 30.4216 41.4162 30.6536C42.0417 31.3565 41.8999 31.8644 41.8999 31.8644C42.2803 32.6979 42.0611 33.196 42.0611 33.196C42.0611 33.196 42.7866 34.0296 42.3545 34.5519C41.8708 35.1388 40.9487 33.8522 40.0087 33.4556C37.8532 32.5447 34.5272 31.8547 33.8823 31.6548L35.4188 27.3389Z" fill="#F7A9A0"/>
<path d="M38.4142 30.9181C39.0486 31.1763 39.6643 31.4779 40.257 31.8209C40.8819 32.2359 41.4747 32.6972 42.0304 33.201C42.0342 33.2031 42.0386 33.204 42.0429 33.2033C42.0472 33.2027 42.0512 33.2006 42.0542 33.1975C42.0571 33.1943 42.059 33.1902 42.0593 33.1859C42.0597 33.1815 42.0586 33.1772 42.0562 33.1736C41.0783 32.0945 39.823 31.3043 38.4271 30.8891C38.3949 30.8794 38.382 30.9036 38.4142 30.9181Z" fill="#263238"/>
<path d="M38.7737 29.5364C39.3719 29.8427 40.4166 30.3893 41.8789 31.8822C41.8789 31.8822 41.8934 31.8822 41.8885 31.8822C41.0949 30.8203 40.0215 30.0002 38.7883 29.5138C38.7496 29.4913 38.735 29.5154 38.7737 29.5364Z" fill="#263238"/>
<path d="M38.9817 28.798C39.9765 29.359 40.5327 29.8378 41.4081 30.6568C41.4081 30.6568 41.421 30.6568 41.4162 30.6488C40.5214 29.6137 40.0796 29.3397 38.9978 28.7609C38.9591 28.7415 38.943 28.7754 38.9817 28.798Z" fill="#263238"/>
<path d="M27.3625 24.4321L24.4879 27.1261C24.4879 27.1261 23.3271 22.9472 23.3352 21.6252C23.3352 20.1339 24.1026 20.4628 25.1086 21.464C26.1146 22.4652 27.3625 24.4321 27.3625 24.4321Z" fill="#FFB803"/>
<path opacity="0.1" d="M27.3625 24.4321L24.4879 27.1261C24.4879 27.1261 23.3271 22.9472 23.3352 21.6252C23.3352 20.1339 24.1026 20.4628 25.1086 21.464C26.1146 22.4652 27.3625 24.4321 27.3625 24.4321Z" fill="black"/>
<path d="M26.774 24.0065C26.3613 24.2999 25.2472 25.3543 25.0602 25.5268C24.9619 25.6187 24.5879 25.9976 24.4895 26.0879C24.4766 26.0992 24.4895 26.1169 24.5089 26.1056C24.6975 25.9347 24.9038 25.7832 25.0925 25.6107C25.2811 25.4382 26.4548 24.4079 26.7869 24.021C26.795 24.013 26.7837 24.0001 26.774 24.0065Z" fill="#263238"/>
<path d="M42.5963 56.7602C42.2061 56.8875 30.9722 56.4377 30.5514 56.1653C30.4998 56.1346 30.2999 53.9743 30.2999 53.9743L31.5994 45.673L38.9753 45.7713L37.5517 52.8651C37.5517 52.8651 39.1768 53.6131 40.5165 54.2661C41.342 54.6659 42.0594 55.0319 42.2239 55.1657C42.6559 55.5107 42.9881 56.6344 42.5963 56.7602Z" fill="#F7A9A0"/>
<path d="M42.5979 56.7602C42.2078 56.8876 30.9706 56.4378 30.5515 56.1669C30.5015 56.1347 30.2983 53.9743 30.2983 53.9743L30.6998 51.4174L37.7758 51.7398L37.5469 52.8587C37.5469 52.8587 39.1704 53.6067 40.5117 54.2581C41.3372 54.6579 42.0546 55.0239 42.2191 55.1577C42.6544 55.5124 42.9865 56.6361 42.5979 56.7602Z" fill="#EBEBEB"/>
<path d="M42.5914 56.7715C42.1932 56.8957 30.8851 56.6329 30.4611 56.3491C30.2999 56.2443 30.2403 54.5934 30.2274 52.5975V52.5363L37.5258 52.6249V52.7475C37.5258 52.7475 41.8095 54.7853 42.2432 55.1464C42.6769 55.5076 42.9896 56.6522 42.5914 56.7715Z" fill="#C7C7C7"/>
<path d="M41.9465 56.8038C39.4718 56.8296 30.8223 56.5974 30.4611 56.3507C30.2999 56.2459 30.2403 54.595 30.2274 52.5991V52.5378L34.798 52.5927L41.9465 56.8038Z" fill="#A6A6A6"/>
<path d="M42.4738 56.3331C40.5681 56.2412 32.8746 56.0525 30.9851 56.1073C30.969 56.1073 30.969 56.1186 30.9851 56.1202C32.8714 56.2508 40.5649 56.3766 42.4721 56.3637C42.5124 56.3637 42.5141 56.3347 42.4738 56.3331Z" fill="#263238"/>
<path d="M38.1321 52.7861C37.3856 52.6249 36.4651 52.7216 35.875 53.2439C35.8524 53.2633 35.875 53.2955 35.9056 53.2875C36.6279 53.0732 37.3711 52.9369 38.1224 52.8812C38.134 52.8806 38.1449 52.8759 38.1533 52.8679C38.1617 52.86 38.1669 52.8493 38.1681 52.8378C38.1692 52.8263 38.1663 52.8148 38.1597 52.8053C38.1531 52.7958 38.1433 52.789 38.1321 52.7861Z" fill="#263238"/>
<path d="M38.6657 53.1248C37.9193 52.9636 36.9987 53.0619 36.4086 53.5826C36.3861 53.602 36.4086 53.6342 36.4393 53.6278C37.1632 53.4142 37.9081 53.2791 38.6609 53.2247C38.6742 53.2254 38.6871 53.2207 38.6969 53.2118C38.7068 53.2029 38.7126 53.1904 38.7133 53.1772C38.7139 53.1639 38.7093 53.151 38.7004 53.1411C38.6914 53.1313 38.679 53.1254 38.6657 53.1248Z" fill="#263238"/>
<path d="M39.1994 53.4633C38.453 53.3021 37.5324 53.4004 36.9423 53.9211C36.9198 53.9421 36.9423 53.9727 36.973 53.9663C37.6952 53.7516 38.4384 53.6148 39.1898 53.5584C39.2013 53.5578 39.2122 53.5531 39.2206 53.5451C39.229 53.5372 39.2342 53.5265 39.2354 53.515C39.2366 53.5035 39.2336 53.492 39.227 53.4825C39.2204 53.473 39.2106 53.4662 39.1994 53.4633Z" fill="#263238"/>
<path d="M38.1708 51.7914L29.9372 51.4174C29.9372 51.4174 32.7828 39.8627 32.4797 39.487C32.1572 39.084 20.2365 42.0666 17.8537 39.1098C15.4128 36.0804 16.6364 31.7194 16.6364 31.7194H24.7668C24.7668 31.7194 24.6056 32.8108 24.7152 33.3316C24.7152 33.3316 36.162 31.5807 38.6512 32.8995C39.1349 33.1591 40.9083 34.6165 40.9373 35.9982C41.0937 42.1004 38.1708 51.7914 38.1708 51.7914Z" fill="#455A64"/>
<path d="M38.253 50.3001C37.276 50.1776 36.2974 50.1034 35.3155 50.0292C34.3337 49.9551 33.3519 49.897 32.37 49.86C31.8154 49.8374 31.2608 49.8422 30.7062 49.8229C30.7034 49.8239 30.7009 49.8257 30.6992 49.8282C30.6974 49.8306 30.6965 49.8336 30.6965 49.8366C30.6965 49.8396 30.6974 49.8425 30.6992 49.845C30.7009 49.8474 30.7034 49.8493 30.7062 49.8503C31.1996 49.8858 31.6913 49.9486 32.1846 49.9873L33.6453 50.0937C34.6271 50.1582 35.609 50.213 36.5908 50.2727C37.1438 50.3065 37.6968 50.3243 38.2514 50.3372C38.2554 50.3362 38.259 50.3339 38.2617 50.3306C38.2643 50.3274 38.2659 50.3234 38.266 50.3192C38.2662 50.3151 38.2651 50.3109 38.2627 50.3075C38.2603 50.304 38.2569 50.3014 38.253 50.3001Z" fill="#263238"/>
<path d="M33.7485 38.6663C32.1669 38.7179 30.5934 38.8549 29.0199 39.0097C27.4464 39.1644 25.8632 39.3321 24.2768 39.4353C23.49 39.4853 22.7 39.5175 21.91 39.5224C21.2539 39.5505 20.5971 39.4821 19.9609 39.3192C19.3292 39.1346 18.7892 38.7206 18.447 38.1584C18.1029 37.5887 17.8776 36.9553 17.7844 36.2963C17.5764 34.963 17.7844 33.6007 18.0278 32.2851C18.0585 32.1239 18.0891 31.9627 18.1181 31.7886C18.1181 31.774 18.0971 31.7676 18.0923 31.7886C17.7699 33.1154 17.4684 34.481 17.5651 35.8513C17.6047 36.5238 17.7687 37.1831 18.0488 37.7957C18.3014 38.3909 18.736 38.8909 19.2902 39.2241C19.8561 39.5465 20.5251 39.6417 21.1749 39.6739C21.9326 39.7126 22.7 39.6739 23.4578 39.64C25.0797 39.561 26.6951 39.3934 28.3073 39.2257C29.9195 39.058 31.5237 38.8936 33.144 38.813C33.3229 38.8033 33.5019 38.7969 33.6808 38.7904C33.4358 40.2414 31.3608 48.8796 31.2448 49.5632C31.2335 49.6309 31.298 49.6519 31.3157 49.5826C31.6704 48.2364 33.684 39.5868 33.8179 38.742C33.82 38.7322 33.8198 38.722 33.8171 38.7123C33.8145 38.7026 33.8096 38.6936 33.8028 38.6862C33.796 38.6788 33.7875 38.6731 33.7781 38.6696C33.7687 38.6662 33.7585 38.665 33.7485 38.6663Z" fill="#263238"/>
<path d="M40.0958 57.0972H22.5001V59.0431H40.0958V57.0972Z" fill="#FFB803"/>
<path d="M7.03729 40.0254H8.03525L14.4841 47.4029H13.4862L7.03729 40.0254Z" fill="#A6A6A6"/>
<path d="M19.6061 39.4402H5.73785V40.0238H19.6061V39.4402Z" fill="#A6A6A6"/>
<path d="M10.8002 40.0254H11.7981L18.247 47.4029H17.249L10.8002 40.0254Z" fill="#A6A6A6"/>
<path d="M17.2168 53.6261C22.2276 53.6261 25.1312 57.1069 25.1312 61.2035C25.1312 65.3001 22.442 68.7019 17.5554 68.7019C12.148 68.7019 9.56525 64.4005 9.56525 61.1664C9.56525 57.9323 12.1448 53.6261 17.2168 53.6261Z" fill="#37474F"/>
<path d="M16.4462 53.6261C21.2103 53.6261 23.9688 57.1069 23.9688 61.2035C23.9688 65.3001 21.4134 68.7019 16.7654 68.7019C11.6241 68.7019 9.17188 64.3941 9.17188 61.16C9.17188 57.9259 11.6241 53.6261 16.4462 53.6261Z" fill="#263238"/>
<path d="M16.4945 56.5684C19.3965 56.5684 21.0781 58.69 21.0781 61.1857C21.0781 63.6815 19.5207 65.7531 16.6896 65.7531C13.5555 65.7531 12.0593 63.1317 12.0593 61.1599C12.0593 59.1882 13.5555 56.5684 16.4945 56.5684Z" fill="#C7C7C7"/>
<path d="M31.4011 44.4414V43.782L14.5389 44.3253V45.8085C14.5389 45.8085 9.65551 51.2014 9.16217 56.8071L26.0711 57.165L28.7877 57.0973H32.1233V53.7084C32.1233 53.7084 29.6018 51.8705 30.0436 48.1156C30.1903 46.8694 31.4011 44.4414 31.4011 44.4414Z" fill="#FFB803"/>
<path d="M24.496 56.3797C24.3203 56.7022 21.7552 57.1649 16.8928 57.2955C12.5156 57.4132 9.24607 57.3164 8.99295 57.0343C8.73983 56.7521 9.38472 51.7623 12.348 49.0603C15.3112 46.3582 19.5062 45.9697 22.2728 47.5819C24.7056 48.9958 26.521 52.5894 24.496 56.3797Z" fill="#FFB803"/>
<path opacity="0.1" d="M25.3214 51.656C25.0615 50.4744 24.4619 49.3946 23.5963 48.5492C22.7287 47.6799 21.6453 47.0572 20.4574 46.7452C19.1323 46.4144 17.7445 46.4294 16.4268 46.7887C15.7674 46.9616 15.1297 47.2088 14.526 47.5255C13.8886 47.868 13.2879 48.2748 12.7332 48.7395C12.5849 48.862 12.435 48.9845 12.2883 49.1103C12.2754 49.12 12.2883 49.1377 12.3076 49.128C12.8657 48.6373 13.4699 48.2016 14.1117 47.827C14.6974 47.4925 15.3187 47.2248 15.9641 47.0289C17.2437 46.6287 18.6025 46.5523 19.9189 46.8064C21.1086 47.0455 22.2112 47.6027 23.1095 48.4186C23.975 49.1979 24.6115 50.1984 24.9506 51.3126C25.3537 52.6701 25.2215 54.1646 24.82 55.5043C24.7668 55.6849 24.7088 55.8622 24.6491 56.0396C24.6491 56.0589 24.6717 56.0654 24.6781 56.0476C25.2198 54.6563 25.6245 53.1569 25.3214 51.656Z" fill="black"/>
<path d="M13.6006 57.8097C10.6648 57.8097 9.11058 57.7194 8.3222 57.4067L8.68818 56.4861C9.61036 56.8521 12.4978 56.8456 17.1442 56.7924C20.5766 56.7521 23.1094 56.428 24.6894 55.8251L25.0425 56.7505C23.3335 57.3954 20.754 57.7372 17.1555 57.7791C15.79 57.7984 14.6131 57.8097 13.6006 57.8097Z" fill="#DBDBDB"/>
<path d="M31.6784 44.2157C31.6784 44.2157 31.7913 40.5269 31.6784 40.3818C31.5656 40.2367 14.4954 39.9288 13.9844 39.974C13.4733 40.0191 13.4217 44.3269 13.4604 44.5285C13.4991 44.73 31.2334 44.2544 31.6784 44.2157Z" fill="#37474F"/>
<path d="M33.2777 40.4559C33.2277 40.3979 31.0641 40.3366 30.9448 40.3334C30.8255 40.3302 30.7836 44.2623 30.8481 44.2591C30.9126 44.2559 33.1987 44.2881 33.2745 44.2043C33.3503 44.1205 33.3857 40.5817 33.2777 40.4559Z" fill="#455A64"/>
<path d="M21.3215 39.9771C21.2604 40.0408 21.2204 40.1219 21.2071 40.2092C21.1868 40.3012 21.1723 40.3943 21.1635 40.4881C21.1426 40.6751 21.1313 40.8654 21.1216 41.054C21.1055 41.4345 21.0958 41.8166 21.0894 42.2003C21.0829 42.584 21.0732 42.9645 21.0894 43.3434C21.0908 43.531 21.1037 43.7184 21.1281 43.9044C21.1377 43.9943 21.1589 44.0826 21.1909 44.1672C21.2027 44.2051 21.2236 44.2396 21.2517 44.2677C21.2797 44.2958 21.3142 44.3166 21.3522 44.3284C21.3096 44.3272 21.2683 44.3138 21.2332 44.2898C21.198 44.2658 21.1705 44.2322 21.1539 44.193C21.1087 44.1087 21.0736 44.0194 21.0491 43.927C21.0034 43.7379 20.9738 43.5454 20.9604 43.3514C20.9306 42.9653 20.9209 42.5778 20.9314 42.1906C20.941 41.8053 20.9572 41.4184 21.0007 41.0331C21.0216 40.8403 21.0523 40.6487 21.0926 40.4591C21.1151 40.3653 21.1425 40.2727 21.1748 40.1818C21.2006 40.1028 21.2457 40.0045 21.3215 39.9771Z" fill="#455A64"/>
<path d="M6.37953 39.4321H22.5001V29.4106H6.37953V39.4321Z" fill="#37474F"/>
<path d="M6.37955 39.4321H18.0262V29.4106H6.37955L6.37955 39.4321Z" fill="#263238"/>
<path d="M12.83 29.4089H11.5773V39.4305H12.83V29.4089Z" fill="#FFB803"/>
<path d="M18.0278 28.4821H6.05225V29.4091H18.0278V28.4821Z" fill="#37474F"/>
<path d="M22.8612 28.4821H18.0262V29.4091H22.8612V28.4821Z" fill="#263238"/>
<path d="M12.9348 28.4821H11.4709V29.4091H12.9348V28.4821Z" fill="#FFB803"/>
<path d="M8.08688 28.5239H19.8544V21.2077H8.08688L8.08688 28.5239Z" fill="#37474F"/>
<path d="M8.08687 28.5239H16.5881V21.2077H8.08687L8.08687 28.5239Z" fill="#263238"/>
<path d="M12.7945 21.2092H11.8804V28.5255H12.7945V21.2092Z" fill="#FFB803"/>
<path d="M16.5881 20.5321H7.84668V21.2092H16.5881V20.5321Z" fill="#37474F"/>
<path d="M20.1172 20.5321H16.5881V21.2092H20.1172V20.5321Z" fill="#263238"/>
<path d="M12.8719 20.5321H11.803V21.2092H12.8719V20.5321Z" fill="#FFB803"/>
<path d="M54.0205 53.5648C59.0328 53.5648 61.9348 57.0456 61.9348 61.1422C61.9348 65.2389 59.2456 68.6358 54.3574 68.6358C48.9484 68.6358 46.3657 64.3344 46.3657 61.1019C46.3657 57.8694 48.9484 53.5648 54.0205 53.5648Z" fill="#37474F"/>
<path d="M53.2499 53.5648C58.014 53.5648 60.7741 57.0456 60.7741 61.1422C60.7741 65.2389 58.2171 68.6358 53.5707 68.6358C48.4293 68.6358 45.9739 64.3344 45.9739 61.1019C45.9739 57.8694 48.4293 53.5648 53.2499 53.5648Z" fill="#263238"/>
<path d="M53.2982 56.5072C56.2002 56.5072 57.8834 58.6289 57.8834 61.1246C57.8834 63.6203 56.326 65.692 53.4933 65.692C50.3608 65.692 48.8646 63.0705 48.8646 61.1004C48.8646 59.1303 50.3608 56.5072 53.2982 56.5072Z" fill="#C7C7C7"/>
<path d="M45.9126 36.4512H43.9409L42.5898 34.4681H44.9001L45.9126 36.4512Z" fill="#FFB803"/>
<path d="M42.5898 34.4681L43.3814 35.6289L43.9409 36.4512H45.9126L45.379 35.4064L44.8985 34.4681H42.5898Z" fill="#FFB803"/>
<path opacity="0.1" d="M42.5898 34.4681L43.3814 35.6289L45.379 35.4064L44.8985 34.4681H42.5898Z" fill="black"/>
<path d="M50.7042 51.2497L48.784 51.6914L47.0235 50.0599L49.2741 49.5439L50.7042 51.2497Z" fill="#FFB803"/>
<path d="M47.0235 50.0599L48.0537 51.0159L48.7824 51.6914L50.7058 51.2497L49.9513 50.3517L49.2741 49.5439L47.0235 50.0599Z" fill="#FFB803"/>
<path opacity="0.1" d="M47.0235 50.0599L48.0537 51.0159L49.9513 50.3517L49.2741 49.5439L47.0235 50.0599Z" fill="black"/>
<path d="M61.4995 54.5321L59.6342 55.5123C59.6342 55.5123 54.2316 54.5321 50.767 55.2737C47.3023 56.0153 46.3673 57.8661 46.3673 57.8661H44.6164C44.6164 57.8661 46.119 52.5281 48.6679 50.5902C51.2168 48.6523 55.3134 49.086 57.5786 50.3065C59.8438 51.5269 61.4995 54.5321 61.4995 54.5321Z" fill="#FFB803"/>
<path opacity="0.1" d="M59.4375 55.1432C59.0761 54.7659 58.6847 54.4187 58.267 54.105C57.8531 53.7832 57.4155 53.4933 56.9579 53.2376C56.0708 52.7446 55.098 52.4251 54.0914 52.296C52.1213 52.0542 50.0608 52.6282 48.6098 54.142C47.7941 54.9997 47.2137 56.0525 46.6623 57.115C46.6542 57.1311 46.6768 57.144 46.6849 57.1279C47.152 56.1937 47.7419 55.3262 48.439 54.5483C49.1106 53.815 49.9465 53.2514 50.8782 52.9039C52.7371 52.2219 54.7476 52.4831 56.5339 53.3069C57.0454 53.5387 57.539 53.8082 58.0107 54.113C58.493 54.4378 58.9585 54.7871 59.4052 55.1593C59.4081 55.162 59.4117 55.1636 59.4156 55.1642C59.4195 55.1647 59.4234 55.164 59.4269 55.1623C59.4304 55.1606 59.4332 55.1578 59.4351 55.1544C59.437 55.151 59.4378 55.1471 59.4375 55.1432Z" fill="black"/>
<path d="M38.9382 35.3839C38.9092 35.4516 35.0157 36.1674 35.0157 36.1674C35.0157 36.1674 34.3708 35.7321 34.769 35.1807L38.6754 34.3375C38.8256 34.4607 38.9322 34.6289 38.9795 34.8173C39.0268 35.0057 39.0123 35.2043 38.9382 35.3839Z" fill="#263238"/>
<path d="M47.1105 30.3505V34.9695C47.1105 34.9695 44.6164 34.7519 43.9522 34.7293C43.288 34.7067 40.336 35.0888 40.336 35.0888L40.1071 34.0538C40.1071 34.0538 42.3835 33.259 43.3508 32.6383C44.3182 32.0176 45.4322 30.831 46.0303 30.5682C46.3688 30.4135 46.7385 30.339 47.1105 30.3505Z" fill="#FFB803"/>
<path d="M40.3457 33.9232C40.494 34.0757 40.6058 34.2598 40.6728 34.4617C40.7399 34.6635 40.7603 34.878 40.7326 35.0888C40.7326 35.0888 38.8737 35.429 38.8512 35.429C38.8666 35.2103 38.8136 34.9922 38.6995 34.805C38.5854 34.6178 38.4158 34.4708 38.2144 34.3843L40.3457 33.9232Z" fill="#DBDBDB"/>
<path d="M47.1347 34.9696C47.8096 34.9696 48.3567 33.9359 48.3567 32.6609C48.3567 31.3858 47.8096 30.3522 47.1347 30.3522C46.4597 30.3522 45.9126 31.3858 45.9126 32.6609C45.9126 33.9359 46.4597 34.9696 47.1347 34.9696Z" fill="#DBDBDB"/>
<path d="M47.2105 34.7213C47.7884 34.7213 48.2568 33.7988 48.2568 32.6609C48.2568 31.5229 47.7884 30.6005 47.2105 30.6005C46.6326 30.6005 46.1642 31.5229 46.1642 32.6609C46.1642 33.7988 46.6326 34.7213 47.2105 34.7213Z" fill="white"/>
<path d="M47.5281 36.4575C47.9344 37.0524 49.5611 45.1425 49.8804 45.5488C50.1996 45.9551 50.8106 45.9841 50.8106 45.9841L51.886 48.6571C51.886 48.6571 49.2145 49.5003 47.7313 50.7192C45.8144 52.2943 44.0425 57.5163 44.0425 57.5163C43.7523 57.7194 40.1506 59.201 39.1624 59.2591C39.1624 59.2591 43.7556 54.2161 44.1296 47.2368C44.2747 44.5331 42.6109 40.725 42.5029 38.8388C42.3836 36.8138 42.9962 36.4575 44.0715 36.4575H47.5281Z" fill="#FFB803"/>
<path d="M38.9414 59.8348L38.2224 59.1545C42.2529 54.8885 43.7393 48.1672 43.6217 46.3325C43.5604 45.3926 43.2589 44.3414 42.9381 43.2274C42.5963 42.0392 42.2094 40.693 42.0449 39.2307C41.8918 37.8732 42.0449 36.9962 42.5076 36.4722C42.9703 35.9482 43.6055 35.9499 44.0279 35.9515H47.865V36.9414H44.0263C43.6571 36.9414 43.4056 36.9543 43.246 37.1332C43.0864 37.3122 42.8784 37.7781 43.03 39.1211C43.1912 40.4995 43.5443 41.7474 43.8909 42.9533C44.2262 44.1206 44.5358 45.2217 44.6099 46.268C44.7357 48.2269 43.1896 55.3577 38.9414 59.8348Z" fill="#DBDBDB"/>
<path d="M49.8996 47.756C50.1253 48.5879 50.8363 49.1167 51.4876 48.9394C52.139 48.762 52.4856 47.9446 52.2583 47.1143C52.031 46.2841 51.32 45.752 50.6686 45.9294C50.0173 46.1067 49.6723 46.9257 49.8996 47.756Z" fill="#DBDBDB"/>
<path d="M50.1415 47.6899C50.343 48.4315 50.9589 48.9087 51.5167 48.7572C52.0745 48.6056 52.3615 47.8817 52.1616 47.145C51.9617 46.4082 51.3442 45.9261 50.788 46.0777C50.2318 46.2292 49.94 46.9483 50.1415 47.6899Z" fill="white"/>
<path opacity="0.1" d="M47.0476 47.6223C46.8687 46.7856 46.6752 45.9521 46.5075 45.1137C46.3399 44.2754 46.1851 43.4354 46.0545 42.5922C45.9271 41.807 45.7901 41.0138 45.7401 40.219C45.6902 39.3887 45.7401 38.5504 46.1432 37.8007C46.144 37.7992 46.1446 37.7976 46.1448 37.7959C46.145 37.7942 46.1449 37.7925 46.1444 37.7908C46.144 37.7892 46.1432 37.7876 46.1422 37.7863C46.1411 37.7849 46.1398 37.7838 46.1384 37.783C46.1369 37.7821 46.1352 37.7816 46.1335 37.7814C46.1318 37.7811 46.1301 37.7813 46.1285 37.7817C46.1268 37.7822 46.1253 37.7829 46.1239 37.784C46.1226 37.785 46.1215 37.7863 46.1206 37.7878C45.7063 38.3924 45.5708 39.1195 45.5483 39.8402C45.5504 40.6347 45.6205 41.4275 45.7579 42.2101C45.9931 43.9285 46.316 45.6338 46.7252 47.3192C46.959 48.272 47.2605 49.2087 47.5829 50.1341C47.5829 50.1371 47.5841 50.14 47.5862 50.1421C47.5883 50.1442 47.5912 50.1454 47.5942 50.1454C47.5972 50.1454 47.6 50.1442 47.6022 50.1421C47.6043 50.14 47.6055 50.1371 47.6055 50.1341C47.4131 49.2926 47.2271 48.4553 47.0476 47.6223Z" fill="black"/>
<path opacity="0.1" d="M32.1234 53.7084V57.094H29.2343V54.5306C29.2343 54.5306 27.6221 53.7164 27.2996 50.7548C27.0094 48.0721 29.1505 44.4914 29.5567 43.8416L31.3963 43.782V44.4414C31.3963 44.4414 30.1855 46.8694 30.0388 48.1156C29.6019 51.8705 32.1234 53.7084 32.1234 53.7084Z" fill="black"/>
<path d="M39.3896 57.8856C38.9995 58.0113 27.7639 57.5631 27.3432 57.2907C27.2932 57.26 27.0933 55.098 27.0933 55.098L28.3927 46.7968L35.7686 46.8951L34.345 53.9888C34.345 53.9888 35.9685 54.7353 37.3099 55.3882C38.1353 55.7897 38.8528 56.1557 39.0172 56.2879C39.4477 56.6361 39.7798 57.7598 39.3896 57.8856Z" fill="#F7A9A0"/>
<path d="M39.3913 57.8855C38.9995 58.0113 27.764 57.5631 27.3448 57.2906C27.2932 57.26 27.0917 55.0996 27.0917 55.0996L27.4931 52.541L34.5691 52.8635L34.345 53.9791C34.345 53.9791 35.9685 54.7272 37.3099 55.3785C38.1337 55.78 38.8528 56.1459 39.0172 56.2781C39.4477 56.6377 39.7798 57.7598 39.3913 57.8855Z" fill="#EBEBEB"/>
<path d="M39.3832 57.9C38.9866 58.0241 27.6769 57.7597 27.2528 57.476C27.0916 57.3712 27.0336 55.7219 27.0207 53.726V53.6631L34.3176 53.7518V53.8759C34.3176 53.8759 38.6012 55.9121 39.0349 56.2733C39.4686 56.6344 39.7814 57.7758 39.3832 57.9Z" fill="#C7C7C7"/>
<path d="M39.2655 57.4567C37.3615 57.3664 29.668 57.1778 27.7784 57.2326C27.7623 57.2326 27.7623 57.2439 27.7784 57.2439C29.6647 57.3761 37.3582 57.5018 39.2655 57.4889C39.3058 57.4873 39.3058 57.4583 39.2655 57.4567Z" fill="#263238"/>
<path d="M34.9254 53.9098C34.179 53.7486 33.2584 53.8469 32.6683 54.3677C32.6441 54.3886 32.6683 54.4193 32.6989 54.4128C33.4212 54.198 34.1643 54.0612 34.9157 54.0049C34.9273 54.0043 34.9382 53.9996 34.9466 53.9917C34.955 53.9837 34.9602 53.973 34.9614 53.9615C34.9626 53.95 34.9596 53.9385 34.953 53.929C34.9464 53.9195 34.9366 53.9127 34.9254 53.9098Z" fill="#263238"/>
<path d="M35.459 54.25C34.7125 54.0888 33.792 54.1855 33.2019 54.7062C33.1793 54.7272 33.2019 54.7594 33.2325 54.7514C33.9553 54.5364 34.699 54.3997 35.4509 54.3435C35.4571 54.344 35.4633 54.3433 35.4691 54.3415C35.475 54.3396 35.4805 54.3366 35.4852 54.3326C35.4899 54.3287 35.4938 54.3238 35.4966 54.3184C35.4995 54.3129 35.5012 54.3069 35.5017 54.3008C35.5023 54.2946 35.5016 54.2884 35.4997 54.2826C35.4979 54.2767 35.4949 54.2712 35.4909 54.2665C35.4869 54.2618 35.4821 54.2579 35.4766 54.2551C35.4711 54.2522 35.4651 54.2505 35.459 54.25Z" fill="#263238"/>
<path d="M35.9927 54.5886C35.2462 54.4273 34.3257 54.5241 33.7356 55.0464C33.713 55.0658 33.7356 55.098 33.7662 55.09C34.4887 54.8764 35.2318 54.7403 35.983 54.6837C35.9946 54.6831 36.0055 54.6784 36.0139 54.6704C36.0223 54.6625 36.0275 54.6518 36.0287 54.6403C36.0298 54.6288 36.0269 54.6172 36.0203 54.6078C36.0137 54.5983 36.0039 54.5915 35.9927 54.5886Z" fill="#263238"/>
<path d="M34.9673 52.9167L26.7337 52.5411C26.7337 52.5411 29.5809 40.9863 29.2778 40.6107C28.9554 40.206 18.0987 43.1902 15.7142 40.2334C13.2733 37.2041 15.7142 32.1337 15.7142 32.1337H24.0607C24.0607 32.1337 24.0607 33.0623 23.4932 34.452C23.4932 34.452 32.9569 32.6996 35.451 34.0183C35.9427 34.2795 37.7081 35.737 37.7371 37.1186C37.8822 43.2289 34.9673 52.9167 34.9673 52.9167Z" fill="#455A64"/>
<path d="M35.0463 51.4254C34.0693 51.3028 33.0891 51.2271 32.1073 51.1545C31.1254 51.082 30.1452 51.0223 29.1618 50.9836C28.6088 50.9627 28.0542 50.9675 27.4996 50.9465C27.4957 50.9465 27.492 50.9481 27.4893 50.9508C27.4866 50.9535 27.485 50.9572 27.485 50.961C27.485 50.9649 27.4866 50.9686 27.4893 50.9713C27.492 50.974 27.4957 50.9756 27.4996 50.9756C27.9929 51.011 28.4846 51.0723 28.978 51.111C29.4713 51.1497 29.9453 51.1851 30.4386 51.2174C31.4189 51.2835 32.4007 51.3367 33.3825 51.398C33.9371 51.4318 34.4901 51.4495 35.0447 51.4624C35.0488 51.4614 35.0524 51.4591 35.055 51.4559C35.0577 51.4527 35.0592 51.4487 35.0594 51.4445C35.0596 51.4403 35.0584 51.4362 35.056 51.4328C35.0537 51.4293 35.0503 51.4267 35.0463 51.4254Z" fill="#263238"/>
<path d="M19.2047 32.8318C19.1938 32.8658 19.1797 32.8987 19.1628 32.9301C19.1609 32.9324 19.1599 32.9352 19.1599 32.9382C19.1599 32.9411 19.1609 32.9439 19.1628 32.9462C19.066 33.2477 19.0257 33.5669 18.9322 33.87C18.8434 34.1918 18.6464 34.473 18.3744 34.6665C17.8037 35.0631 17.1185 35.242 16.4543 35.4065C16.4503 35.4077 16.4468 35.4101 16.4443 35.4134C16.4418 35.4168 16.4404 35.4208 16.4404 35.425C16.4404 35.4292 16.4418 35.4332 16.4443 35.4366C16.4468 35.4399 16.4503 35.4424 16.4543 35.4435C16.8372 35.4457 17.218 35.3875 17.5828 35.271C17.9256 35.1762 18.2487 35.0211 18.5372 34.8132C18.8082 34.6081 19.0015 34.317 19.0854 33.9877C19.1259 33.8126 19.1577 33.6356 19.1805 33.4573C19.2178 33.2523 19.2399 33.0448 19.2466 32.8366C19.2442 32.8334 19.2413 32.8308 19.2378 32.8288C19.2344 32.8268 19.2306 32.8256 19.2267 32.8251C19.2228 32.8247 19.2188 32.825 19.215 32.8262C19.2112 32.8273 19.2077 32.8292 19.2047 32.8318Z" fill="#263238"/>
<path d="M24.8362 34.0392C24.3822 34.1702 23.94 34.339 23.5142 34.5439L23.4932 34.5535C23.5019 34.5273 23.5084 34.5003 23.5125 34.4729C23.5125 34.4407 23.5222 34.41 23.5287 34.3778C23.5351 34.3455 23.5287 34.3117 23.5383 34.2778V34.2262C23.5932 34.2227 23.6467 34.2078 23.6956 34.1826C23.7444 34.1573 23.7875 34.1222 23.8221 34.0795C23.9111 33.9558 23.9712 33.8137 23.9978 33.6636C24.0478 33.4766 24.0946 33.2863 24.1349 33.0961C24.1752 32.9058 24.2187 32.6721 24.2525 32.4512C24.2935 32.2423 24.3178 32.0304 24.3251 31.8176C24.3251 31.8099 24.322 31.8025 24.3166 31.7971C24.3112 31.7916 24.3038 31.7886 24.2961 31.7886C24.2884 31.7886 24.281 31.7916 24.2756 31.7971C24.2701 31.8025 24.2671 31.8099 24.2671 31.8176C24.2171 32.0127 24.1945 32.2142 24.1574 32.4109C24.1203 32.6076 24.0784 32.8059 24.0333 33.0026C23.9881 33.1993 23.9398 33.396 23.885 33.5894C23.8301 33.7829 23.7882 34.0134 23.5883 34.0731C23.1756 34.1908 23.361 33.267 23.3787 33.0832C23.4206 32.664 23.4464 32.2352 23.5206 31.8192C23.5206 31.8031 23.4964 31.795 23.4932 31.8192C23.4029 32.2013 23.3013 32.5769 23.2336 32.9639C23.1998 33.1541 23.1756 33.346 23.1546 33.5362C23.1212 33.701 23.1346 33.872 23.1933 34.0296C23.2189 34.0828 23.2571 34.129 23.3046 34.1641C23.3521 34.1992 23.4074 34.2222 23.4658 34.2311L23.4529 34.2746C23.4432 34.3052 23.4335 34.3359 23.4255 34.3665C23.4174 34.3971 23.411 34.4294 23.4045 34.46C23.3903 34.4964 23.3853 34.5357 23.39 34.5745C23.3936 34.5854 23.4011 34.5945 23.411 34.6003C23.2352 34.6761 23.0579 34.7518 22.8838 34.834C22.6649 34.92 22.453 35.023 22.2502 35.142C22.226 35.1533 22.2502 35.1855 22.2679 35.1807C22.4949 35.117 22.7169 35.0367 22.9321 34.9405C23.153 34.8566 23.3707 34.7663 23.5899 34.6744C24.0243 34.515 24.4444 34.3192 24.8458 34.0892C24.8525 34.0879 24.8583 34.0841 24.8621 34.0785C24.8659 34.0729 24.8673 34.066 24.866 34.0594C24.8647 34.0528 24.8608 34.0469 24.8553 34.0431C24.8497 34.0393 24.8428 34.0379 24.8362 34.0392Z" fill="#263238"/>
<path d="M37.4921 36.069C37.2064 35.2294 36.6285 34.5204 35.8637 34.0714C35.0786 33.6377 34.1628 33.5217 33.2842 33.4943C32.262 33.4636 31.2334 33.5168 30.2129 33.5813C29.1263 33.649 28.0396 33.7522 26.9595 33.9038C25.8793 34.0553 24.8184 34.2407 23.756 34.4696C23.5013 34.5245 23.2481 34.5922 22.995 34.6631C22.9757 34.6631 22.9789 34.705 22.995 34.7018C24.051 34.5535 25.1022 34.3794 26.1582 34.2343C27.2142 34.0892 28.2815 33.9747 29.3488 33.8941C30.416 33.8135 31.472 33.7683 32.5345 33.7522C33.4051 33.7393 34.3079 33.7522 35.135 34.0327C35.544 34.1634 35.9227 34.3744 36.249 34.6534C36.5696 34.94 36.8322 35.2853 37.0229 35.6707C37.4582 36.5268 37.4985 37.5087 37.542 38.4566C37.6678 41.27 35.6445 50.2097 35.2849 51.6462C35.284 51.6586 35.2875 51.6711 35.2948 51.6812C35.3021 51.6914 35.3128 51.6986 35.3249 51.7017C35.337 51.7048 35.3498 51.7035 35.3611 51.698C35.3724 51.6926 35.3814 51.6834 35.3865 51.672C35.7912 50.0501 37.8048 41.6053 37.8048 39.0677C37.8064 38.0552 37.8435 37.0234 37.4921 36.069Z" fill="#263238"/>
<path d="M30.487 39.637C29.0118 39.6886 27.5447 39.8256 26.0776 39.9804C24.6104 40.1351 23.132 40.3028 21.6552 40.406C20.9201 40.456 20.1833 40.4882 19.4465 40.4931C18.8339 40.5218 18.2207 40.4532 17.6295 40.2899C17.0292 40.0959 16.5246 39.6818 16.2172 39.1307C15.8947 38.5533 15.6851 37.9197 15.5998 37.2638C15.4063 35.9305 15.5998 34.5682 15.8271 33.2526C15.8561 33.0914 15.8835 32.9302 15.9125 32.7577C15.9125 32.7415 15.8916 32.7351 15.8884 32.7577C15.5804 34.0845 15.3047 35.45 15.4047 36.8204C15.4413 37.4902 15.5935 38.1485 15.8545 38.7664C16.082 39.3511 16.4868 39.85 17.0121 40.1932C17.553 40.4826 18.1559 40.6369 18.7694 40.643C19.4794 40.6696 20.1903 40.6583 20.8991 40.6091C22.4114 40.5301 23.9172 40.3625 25.4214 40.1948C26.9256 40.0271 28.4201 39.8627 29.9259 39.7821C30.0871 39.774 30.2596 39.7659 30.4257 39.7611C30.1984 41.204 28.2637 49.8487 28.1557 50.5323C28.1444 50.6 28.2057 50.621 28.2218 50.5533C28.5442 49.2055 30.4305 40.5575 30.5547 39.7111C30.5568 39.7015 30.5566 39.6915 30.5541 39.682C30.5516 39.6725 30.5468 39.6637 30.5401 39.6564C30.5335 39.6491 30.5252 39.6436 30.5159 39.6402C30.5067 39.6368 30.4967 39.6357 30.487 39.637Z" fill="#263238"/>
<path d="M15.2354 33.1639C15.258 33.1961 26.2872 34.0441 26.4032 33.941C26.5645 33.7943 25.473 22.4942 24.4879 20.8369C24.2767 20.4838 23.469 20.2984 22.7613 20.3049C22.577 20.304 22.393 20.3196 22.2115 20.3516H22.1938C22.0473 20.3765 21.9061 20.4261 21.7762 20.4983C19.6577 21.8203 17.3974 27.0407 16.8283 28.6207C15.8852 31.226 15.1532 33.0478 15.2354 33.1639Z" fill="#FFB803"/>
<path d="M23.98 22.2781C23.4319 22.2781 22.5065 21.393 22.3227 20.5627C22.3098 20.5047 22.5371 20.0097 22.7821 19.3938C22.9305 19.0182 23.0869 18.599 23.2013 18.2056C23.2239 18.1234 25.4955 19.5228 25.4955 19.5228C25.2117 19.9743 24.9843 20.4589 24.8184 20.9657C24.8034 21.0185 24.7932 21.0724 24.7877 21.127C24.7884 21.1361 24.7884 21.1453 24.7877 21.1544C24.7442 21.4817 24.5653 22.2862 23.98 22.2781Z" fill="#F7A9A0"/>
<path d="M24.7878 21.1318C24.7884 21.1409 24.7884 21.1501 24.7878 21.1592C24.7008 21.1466 24.6151 21.1266 24.5314 21.0996C23.0805 20.6449 23.232 18.7135 23.2933 18.2314C23.7141 18.4217 25.5004 19.5212 25.5004 19.5212C25.2168 19.9731 24.989 20.4576 24.8216 20.9641C24.806 21.0191 24.7947 21.0751 24.7878 21.1318Z" fill="#263238"/>
<path d="M23.4029 15.1844C23.0047 16.0518 23.1272 18.7313 23.6899 19.3955C24.5073 20.3629 26.0228 20.6547 26.8917 19.6325C27.7333 18.641 27.5124 15.157 26.8676 14.5299C25.9147 13.6077 23.993 13.906 23.4029 15.1844Z" fill="#F7A9A0"/>
<path d="M25.7374 17.0933C25.7374 17.0933 25.7245 17.1029 25.7245 17.111C25.7374 17.29 25.7245 17.4995 25.5632 17.5656C25.5632 17.5656 25.5632 17.5769 25.5632 17.5753C25.7615 17.5398 25.7777 17.2625 25.7374 17.0933Z" fill="#263238"/>
<path d="M25.5681 16.9128C25.2779 16.9015 25.2795 17.4851 25.5487 17.4948C25.818 17.5044 25.8131 16.9208 25.5681 16.9128Z" fill="#263238"/>
<path d="M26.7821 17.1223C26.7821 17.1223 26.7966 17.1304 26.795 17.1384C26.795 17.3174 26.8144 17.5254 26.9772 17.585C26.9772 17.585 26.9772 17.5963 26.9772 17.5947C26.7773 17.5673 26.745 17.2916 26.7821 17.1223Z" fill="#263238"/>
<path d="M26.9433 16.9336C27.2319 16.9111 27.2561 17.4931 26.9869 17.5124C26.7176 17.5318 26.6999 16.9497 26.9433 16.9336Z" fill="#263238"/>
<path d="M25.3392 16.6467C25.4153 16.6239 25.4901 16.597 25.5633 16.566C25.6467 16.55 25.7223 16.5062 25.7777 16.4419C25.7915 16.4183 25.797 16.3908 25.7935 16.3637C25.79 16.3365 25.7777 16.3113 25.7584 16.292C25.7145 16.2598 25.6627 16.24 25.6086 16.2347C25.5544 16.2293 25.4998 16.2385 25.4504 16.2613C25.343 16.2916 25.2508 16.3612 25.1925 16.4564C25.1807 16.4788 25.1757 16.5041 25.1779 16.5293C25.1801 16.5545 25.1894 16.5785 25.2049 16.5986C25.2203 16.6186 25.2412 16.6338 25.265 16.6423C25.2888 16.6508 25.3146 16.6523 25.3392 16.6467Z" fill="#263238"/>
<path d="M27.1674 16.6386C27.0889 16.6235 27.0114 16.6036 26.9353 16.579C26.8508 16.5705 26.7718 16.5335 26.7112 16.4742C26.6948 16.4526 26.686 16.4263 26.686 16.3992C26.686 16.3721 26.6948 16.3458 26.7112 16.3242C26.7521 16.2882 26.802 16.2638 26.8556 16.2536C26.9092 16.2433 26.9645 16.2477 27.0159 16.2662C27.1254 16.2868 27.2232 16.3478 27.29 16.4371C27.3035 16.4577 27.3109 16.4818 27.3113 16.5065C27.3117 16.5312 27.3052 16.5555 27.2923 16.5766C27.2795 16.5977 27.261 16.6147 27.2389 16.6257C27.2168 16.6367 27.192 16.6411 27.1674 16.6386Z" fill="#263238"/>
<path d="M25.573 18.7684C25.6165 18.8103 25.66 18.8683 25.7342 18.8748C25.8012 18.8728 25.8671 18.8568 25.9276 18.828C25.9276 18.828 25.9389 18.828 25.9357 18.8377C25.9099 18.8732 25.8751 18.9011 25.8348 18.9184C25.7945 18.9357 25.7502 18.9418 25.7068 18.936C25.6696 18.9266 25.6362 18.9061 25.6109 18.8774C25.5856 18.8486 25.5695 18.8129 25.5649 18.7748C25.5536 18.7668 25.5665 18.7619 25.573 18.7684Z" fill="#263238"/>
<path d="M25.7616 18.2283C25.8076 18.2997 25.8678 18.3607 25.9386 18.4076C26.0094 18.4545 26.0891 18.4862 26.1727 18.5008C26.2455 18.5145 26.3199 18.5178 26.3936 18.5105C26.4075 18.5121 26.4216 18.5121 26.4355 18.5105H26.4758C26.4853 18.5084 26.4938 18.5034 26.5002 18.4961C26.5066 18.4889 26.5105 18.4798 26.5113 18.4701C26.5121 18.4643 26.5121 18.4583 26.5113 18.4524V18.4363C26.5113 18.2976 26.5 18.0864 26.5 18.0864C26.5516 18.1122 26.8112 18.2283 26.8063 18.1558C26.7893 17.5295 26.7082 16.9066 26.5645 16.2969C26.5645 16.2926 26.5628 16.2885 26.5598 16.2855C26.5567 16.2825 26.5526 16.2808 26.5484 16.2808C26.5441 16.2808 26.54 16.2825 26.537 16.2855C26.5339 16.2885 26.5322 16.2926 26.5322 16.2969C26.5451 16.8757 26.658 17.448 26.6806 18.0284C26.5883 17.986 26.4907 17.9567 26.3904 17.9413C26.371 17.9413 26.4242 18.3492 26.4178 18.4121C26.3041 18.4234 26.1894 18.4117 26.0803 18.378C25.9712 18.3442 25.87 18.2889 25.7826 18.2154C25.7664 18.2025 25.7519 18.2138 25.7616 18.2283Z" fill="#263238"/>
<path d="M26.3113 18.4395C26.2355 18.5395 26.1349 18.6178 26.0195 18.6669C25.9563 18.6914 25.8871 18.6959 25.8212 18.6798C25.6777 18.6427 25.6729 18.5185 25.6987 18.396C25.7141 18.3364 25.7357 18.2786 25.7632 18.2235C25.9181 18.3523 26.1102 18.428 26.3113 18.4395Z" fill="#263238"/>
<path d="M26.0195 18.6667C25.9563 18.6913 25.8871 18.6958 25.8212 18.6796C25.6777 18.6425 25.6729 18.5184 25.6987 18.3959C25.7748 18.3983 25.8479 18.4264 25.9061 18.4756C25.9644 18.5247 26.0043 18.5921 26.0195 18.6667Z" fill="#FF9BBC"/>
<path d="M27.2528 15.4149C27.1545 15.186 27.04 14.9555 26.9014 14.9087C26.7627 14.862 26.674 15.2005 26.3597 15.2215C25.9373 15.2505 25.7325 14.862 25.1408 14.82C24.2896 14.762 23.9155 15.4649 23.8962 16.6773C23.8785 17.7543 23.2271 17.8558 23.2271 17.8558C23.2271 17.8558 22.8321 15.481 23.5012 14.6943C24.1703 13.9075 25.7067 13.5657 26.7385 14.3106C27.1142 14.583 27.2528 15.4149 27.2528 15.4149Z" fill="#263238"/>
<path d="M23.7705 17.4335C23.7705 17.4335 23.2755 16.5194 22.8676 16.6854C22.4597 16.8515 22.7628 18.1364 23.1901 18.3509C23.2436 18.383 23.3031 18.404 23.3649 18.4126C23.4268 18.4211 23.4898 18.4171 23.55 18.4007C23.6103 18.3843 23.6666 18.3558 23.7156 18.317C23.7645 18.2783 23.8051 18.23 23.8349 18.1751L23.7705 17.4335Z" fill="#F7A9A0"/>
<path d="M22.9644 17.0481V17.0594C23.2658 17.2206 23.398 17.543 23.4803 17.8542C23.4655 17.8204 23.4437 17.7902 23.4162 17.7657C23.3887 17.7412 23.3561 17.723 23.3209 17.7122C23.2856 17.7015 23.2485 17.6986 23.212 17.7036C23.1755 17.7086 23.1405 17.7215 23.1095 17.7413C23.0998 17.7413 23.1095 17.7607 23.1095 17.7591C23.1671 17.748 23.2268 17.7549 23.2804 17.7789C23.334 17.8028 23.379 17.8426 23.4093 17.8929C23.4582 17.9783 23.4982 18.0685 23.5286 18.1621C23.5399 18.1912 23.5931 18.1831 23.5851 18.1492V18.1412C23.6399 17.7381 23.3916 17.1384 22.9644 17.0481Z" fill="#263238"/>
<path d="M27.1513 14.7072C26.9014 14.6475 25.5165 14.6895 24.8942 14.9571C24.2719 15.2247 23.1659 16.1195 23.1095 16.1662C23.053 16.213 22.7677 13.9301 24.6201 13.5142C26.637 13.0595 27.1513 14.7072 27.1513 14.7072Z" fill="#FFB803"/>
<path d="M23.2159 16.0727C23.2159 16.0727 24.4396 14.4605 25.1199 14.0897C25.8003 13.7189 27.3238 13.5125 28.267 13.9285C29.0005 14.2509 27.2077 15.1957 27.2077 15.1957C27.1908 15.1183 27.156 15.046 27.1062 14.9844C27.0563 14.9228 26.9929 14.8737 26.9208 14.841C26.4629 14.6588 25.5923 14.7991 25.0957 14.9651C24.4702 15.1763 23.2159 16.0727 23.2159 16.0727Z" fill="#FFB803"/>
<path opacity="0.2" d="M23.2159 16.0808C23.2159 16.0808 24.4396 14.4589 25.1199 14.0897C25.8003 13.7205 27.3238 13.5126 28.267 13.9285C29.0005 14.251 27.2077 15.1957 27.2077 15.1957C27.1908 15.1184 27.156 15.046 27.1062 14.9844C27.0563 14.9229 26.9929 14.8738 26.9208 14.841C26.4629 14.6588 25.5923 14.7991 25.0957 14.9652C24.4702 15.1764 23.2159 16.0808 23.2159 16.0808Z" fill="black"/>
<path d="M21.0781 23.5132C20.9749 26.6925 22.1486 32.6464 23.0127 33.0511C25.8019 34.3537 30.495 34.436 32.1024 34.4505C32.7957 34.4505 33.8597 29.5203 33.1729 29.243C32.7167 29.0592 25.8357 29.0576 25.7148 28.8126C25.5939 28.5675 23.9543 25.0271 23.2465 23.0666C22.3066 20.4597 21.1377 21.6463 21.0781 23.5132Z" fill="#F7A9A0"/>
<path d="M32.4345 29.1769C32.4345 29.1769 34.5416 29.3059 35.9136 29.4542C36.681 29.5364 37.9821 29.796 38.5158 30.1136C39.3219 30.5972 42.3593 33.0929 41.7692 33.8442C41.2339 34.523 38.893 32.0418 38.893 32.0418C38.893 32.0418 41.4726 34.336 40.6826 35.0373C39.8926 35.7386 37.6194 32.5803 37.6194 32.5803C37.6194 32.5803 40.2215 34.9986 39.288 35.5919C38.5835 36.0385 36.3634 33.2961 36.3634 33.2961C36.3634 33.2961 38.5867 35.392 37.8805 35.8756C37.1002 36.4189 34.8931 34.0151 34.8931 34.0151C32.8891 34.9631 31.5478 34.5939 30.624 34.2183C30.3966 34.1344 32.4345 29.1769 32.4345 29.1769Z" fill="#F7A9A0"/>
<path d="M38.0498 31.1904C38.3626 31.4484 38.6818 31.708 38.9704 31.9965C39.259 32.2851 39.5395 32.5786 39.8007 32.8897C40.1502 33.29 40.4531 33.7286 40.7035 34.1972C40.1989 33.3911 39.18 32.3593 38.8898 32.0739C38.5996 31.7886 38.3271 31.4887 38.0385 31.2033C38.0305 31.1937 38.0418 31.184 38.0498 31.1904Z" fill="#263238"/>
<path d="M37.0003 32.2159C37.3856 32.5625 37.7806 32.8946 38.1514 33.259C38.5223 33.6233 38.8383 33.999 39.1817 34.3875C39.2075 34.4166 39.1817 34.4214 39.1542 34.3875C38.7963 34.0151 38.4368 33.6975 38.0757 33.3283C37.7145 32.9591 37.3647 32.5754 36.9907 32.2207C36.9842 32.2191 36.9939 32.211 37.0003 32.2159Z" fill="#263238"/>
<path d="M35.9346 32.9334C36.5393 33.452 37.0888 34.0317 37.5742 34.6633C37.5984 34.6939 37.5662 34.6972 37.5388 34.6633C37.0051 34.0781 36.5908 33.6154 35.9169 32.9528C35.912 32.9447 35.9346 32.9237 35.9346 32.9334Z" fill="#263238"/>
<path d="M38.2497 29.8587C37.7488 29.6447 37.2172 29.5114 36.6746 29.4637C35.5041 29.3202 34.3272 29.2267 33.1503 29.1413C31.9734 29.0558 30.7787 28.9801 29.5921 28.9365C28.9247 28.9107 28.2572 28.8909 27.5898 28.8769C26.9223 28.864 26.7837 28.8882 26.113 28.8962C26.0952 28.8962 26.0969 28.9204 26.113 28.922C27.2818 28.9833 27.9267 29.0317 29.0956 29.0929C30.2644 29.1542 31.4301 29.2235 32.5957 29.3041C33.7613 29.3847 34.9076 29.4653 36.0587 29.5943C36.6155 29.6321 37.1676 29.7212 37.708 29.8603C38.2374 30.0548 38.7286 30.3407 39.159 30.7051C39.6524 31.0937 41.5016 32.872 41.6709 33.1025C41.6918 33.1299 41.6999 33.1218 41.6886 33.0864C41.5548 32.6043 39.3315 30.3633 38.2497 29.8587Z" fill="#263238"/>
<path d="M24.4073 25.5655L20.9781 27.5099C20.9781 27.5099 20.833 23.1762 21.1506 21.8897C21.5085 20.4387 22.1695 20.9417 22.9144 22.1476C23.6592 23.3536 24.4073 25.5655 24.4073 25.5655Z" fill="#FFB803"/>
<path opacity="0.1" d="M24.4073 25.5655L20.9781 27.5099C20.9781 27.5099 20.833 23.1762 21.1506 21.8897C21.5085 20.4387 22.1695 20.9417 22.9144 22.1476C23.6592 23.3536 24.4073 25.5655 24.4073 25.5655Z" fill="black"/>
<path d="M23.9349 25.0108C23.4658 25.1994 22.1341 25.9636 21.9132 26.0878C21.7971 26.1523 21.3425 26.4344 21.2264 26.4989C21.2119 26.5069 21.2264 26.5279 21.2409 26.5198C21.465 26.3973 21.7004 26.2974 21.9261 26.1764C22.1518 26.0555 23.5383 25.3268 23.9446 25.0269C23.9461 25.0254 23.9471 25.0234 23.9474 25.0213C23.9477 25.0191 23.9472 25.0169 23.9461 25.0151C23.945 25.0132 23.9433 25.0118 23.9413 25.011C23.9392 25.0102 23.937 25.0102 23.9349 25.0108Z" fill="#263238"/>
<path d="M23.8673 23.9614C23.8141 23.7598 23.7592 23.5599 23.698 23.36C23.7318 23.5083 23.7705 23.6566 23.8092 23.805C23.6851 23.5244 23.5577 23.2471 23.4191 22.9779H23.411C23.5609 23.4148 23.7335 23.8437 23.8947 24.2773C24.0559 24.711 24.2171 25.1254 24.3783 25.5494C24.3058 25.6058 24.2349 25.6606 24.1607 25.7106C24.1577 25.7125 24.1556 25.7156 24.1548 25.719C24.1541 25.7225 24.1547 25.7262 24.1567 25.7292C24.1586 25.7321 24.1616 25.7342 24.1651 25.735C24.1686 25.7358 24.1722 25.7351 24.1752 25.7332C24.2639 25.688 24.3525 25.6429 24.4444 25.6026C24.4551 25.5986 24.4638 25.5907 24.4689 25.5805C24.4739 25.5704 24.475 25.5587 24.4718 25.5478C24.2913 25.0206 24.0914 24.4853 23.8673 23.9614Z" fill="#263238"/>
<g opacity="0.5">
<path d="M62.1525 22.0426C62.1525 22.1922 62.1081 22.3385 62.025 22.4629C61.9418 22.5873 61.8236 22.6842 61.6854 22.7414C61.5471 22.7985 61.395 22.8134 61.2483 22.7841C61.1016 22.7548 60.9668 22.6826 60.8612 22.5767C60.7555 22.4708 60.6836 22.3359 60.6546 22.1892C60.6256 22.0424 60.6408 21.8903 60.6983 21.7522C60.7558 21.614 60.8529 21.496 60.9775 21.4131C61.102 21.3303 61.2484 21.2862 61.398 21.2865C61.4972 21.2865 61.5955 21.3061 61.6871 21.3441C61.7788 21.3821 61.862 21.4378 61.9321 21.5081C62.0022 21.5783 62.0577 21.6617 62.0955 21.7534C62.1334 21.8451 62.1527 21.9434 62.1525 22.0426Z" fill="#FFB803"/>
<path d="M61.398 23.3243C61.1423 23.3259 60.8918 23.2514 60.6785 23.1103C60.4651 22.9692 60.2986 22.7678 60.1999 22.5318C60.1013 22.2958 60.0751 22.0358 60.1246 21.7849C60.1741 21.5339 60.2971 21.3034 60.478 21.1225C60.6588 20.9417 60.8894 20.8187 61.1403 20.7691C61.3913 20.7196 61.6513 20.7459 61.8873 20.8445C62.1233 20.9431 62.3246 21.1097 62.4657 21.323C62.6068 21.5363 62.6813 21.7868 62.6797 22.0426C62.6776 22.3818 62.5419 22.7066 62.302 22.9465C62.0621 23.1864 61.7373 23.3222 61.398 23.3243ZM61.398 20.9221C61.1768 20.9221 60.9605 20.9876 60.7764 21.1104C60.5923 21.2331 60.4487 21.4077 60.3636 21.6119C60.2786 21.8162 60.2559 22.0411 60.2985 22.2582C60.3411 22.4753 60.447 22.675 60.6029 22.832C60.7588 22.989 60.9577 23.0964 61.1745 23.1405C61.3914 23.1847 61.6164 23.1636 61.8213 23.0801C62.0261 22.9965 62.2017 22.8541 62.3258 22.6709C62.4499 22.4877 62.5169 22.2719 62.5185 22.0506C62.5196 21.9028 62.4914 21.7562 62.4356 21.6194C62.3797 21.4825 62.2974 21.358 62.1932 21.2531C62.089 21.1482 61.9652 21.0649 61.8287 21.0081C61.6922 20.9513 61.5459 20.9221 61.398 20.9221Z" fill="#FFB803"/>
<path d="M15.9174 14.8118C15.9177 14.9614 15.8737 15.1077 15.7908 15.2323C15.7079 15.3568 15.5899 15.454 15.4518 15.5115C15.3136 15.569 15.1615 15.5842 15.0148 15.5552C14.868 15.5262 14.7331 15.4543 14.6272 15.3486C14.5213 15.2429 14.4491 15.1082 14.4198 14.9615C14.3905 14.8148 14.4054 14.6627 14.4626 14.5244C14.5197 14.3861 14.6166 14.268 14.741 14.1848C14.8654 14.1016 15.0117 14.0573 15.1613 14.0573C15.3615 14.0573 15.5536 14.1367 15.6954 14.2781C15.8371 14.4196 15.917 14.6115 15.9174 14.8118Z" fill="#FFB803"/>
<path d="M15.1613 16.0951C14.9059 16.0967 14.6557 16.0225 14.4426 15.8817C14.2294 15.741 14.0628 15.5401 13.964 15.3046C13.8651 15.069 13.8384 14.8094 13.8873 14.5587C13.9361 14.308 14.0583 14.0774 14.2384 13.8963C14.4184 13.7151 14.6482 13.5914 14.8986 13.541C15.149 13.4906 15.4088 13.5156 15.6449 13.613C15.8811 13.7104 16.083 13.8757 16.2251 14.088C16.3672 14.3003 16.443 14.5499 16.443 14.8054C16.443 15.146 16.3082 15.4729 16.0681 15.7145C15.828 15.9562 15.502 16.093 15.1613 16.0951ZM15.1613 13.6913C14.9374 13.6897 14.7181 13.7548 14.5313 13.8782C14.3445 14.0016 14.1986 14.1777 14.1122 14.3843C14.0257 14.5908 14.0027 14.8184 14.046 15.0381C14.0893 15.2577 14.1969 15.4595 14.3553 15.6179C14.5136 15.7762 14.7154 15.8838 14.9351 15.9271C15.1547 15.9704 15.3823 15.9474 15.5888 15.861C15.7954 15.7745 15.9716 15.6286 16.095 15.4418C16.2183 15.255 16.2834 15.0357 16.2818 14.8118C16.2797 14.5153 16.1609 14.2315 15.9513 14.0218C15.7416 13.8122 15.4578 13.6934 15.1613 13.6913Z" fill="#FFB803"/>
<path d="M43.6894 26.0345H33.9194V10.9312H21.0265V14.8925H16.3624V14.7312H20.8653V10.77H34.0806V25.8732H43.5282V21.6895H54.5864V17.6155H61.4786V20.8415H61.3174V17.7767H54.7476V21.8508H43.6894V26.0345Z" fill="#FFB803"/>
</g>
<path d="M17.8456 6.95401C17.7118 5.61265 16.7864 4.27612 15.1613 4.27612C13.5362 4.27612 12.6124 5.6191 12.4785 6.95401C12.2738 9.02571 13.67 10.9023 15.1613 12.6145C16.6526 10.9088 18.0504 9.03216 17.8456 6.95401ZM15.1613 8.4437C14.8704 8.4437 14.5861 8.35742 14.3442 8.19579C14.1024 8.03415 13.9139 7.80442 13.8027 7.53566C13.6915 7.2669 13.6624 6.97118 13.7193 6.68592C13.7762 6.40065 13.9164 6.13867 14.1222 5.9331C14.3279 5.72753 14.5901 5.58763 14.8754 5.53107C15.1607 5.47452 15.4564 5.50387 15.7251 5.6154C15.9937 5.72694 16.2232 5.91565 16.3846 6.15765C16.546 6.39966 16.6319 6.6841 16.6316 6.97497C16.6325 7.16852 16.595 7.36034 16.5215 7.53938C16.448 7.71843 16.3398 7.88117 16.2032 8.01826C16.0665 8.15535 15.9041 8.26408 15.7253 8.3382C15.5465 8.41232 15.3548 8.45036 15.1613 8.45015V8.4437Z" fill="#FFB803"/>
</svg>
