<svg width="96" height="72" viewBox="0 0 96 72" fill="none" xmlns="http://www.w3.org/2000/svg">
<g style="mix-blend-mode:luminosity">
<path d="M47.9769 71.616C68.5368 71.616 85.2038 70.643 85.2038 69.4426C85.2038 68.2422 68.5368 67.2692 47.9769 67.2692C27.4171 67.2692 10.7501 68.2422 10.7501 69.4426C10.7501 70.643 27.4171 71.616 47.9769 71.616Z" fill="#F5F5F5"/>
<path d="M96 62.8608H0V62.9088H96V62.8608Z" fill="#E0E0E0"/>
<path d="M21.0086 65.163H9.91681V65.211H21.0086V65.163Z" fill="#E0E0E0"/>
<path d="M45.2467 64.1204H40.1932V64.1684H45.2467V64.1204Z" fill="#E0E0E0"/>
<path d="M56.9396 64.0955H47.0938V64.1435H56.9396V64.0955Z" fill="#E0E0E0"/>
<path d="M75.6807 64.6714H73.2826V64.7194H75.6807V64.6714Z" fill="#E0E0E0"/>
<path d="M65.0016 64.6714H55.4362V64.7194H65.0016V64.6714Z" fill="#E0E0E0"/>
<path d="M24.768 65.163H22.8672V65.211H24.768V65.163Z" fill="#E0E0E0"/>
<path d="M85.5514 64.6714H77.2474V64.7194H85.5514V64.6714Z" fill="#E0E0E0"/>
<path d="M45.504 0H8.42497C8.19158 0.000215171 7.96432 0.074777 7.77617 0.212871C7.58801 0.350965 7.44875 0.54541 7.37857 0.768C7.34694 0.867999 7.33075 0.972238 7.33057 1.07712V53.2013C7.33057 53.4917 7.44581 53.7703 7.65099 53.9758C7.85618 54.1814 8.13454 54.2971 8.42497 54.2976H45.504C45.7948 54.2976 46.0736 54.1821 46.2792 53.9765C46.4848 53.7709 46.6003 53.492 46.6003 53.2013V1.09632C46.6003 0.805558 46.4848 0.526705 46.2792 0.321105C46.0736 0.115505 45.7948 0 45.504 0ZM46.5523 53.2013C46.5518 53.4792 46.4412 53.7455 46.2447 53.942C46.0482 54.1385 45.7819 54.2491 45.504 54.2496H8.42497C8.14727 54.2491 7.88112 54.1384 7.68493 53.9419C7.48875 53.7453 7.37857 53.479 7.37857 53.2013V1.08672C7.37857 0.809021 7.48875 0.542667 7.68493 0.346124C7.88112 0.14958 8.14727 0.038908 8.42497 0.0383994H45.504C45.7817 0.0394112 46.0478 0.150184 46.2442 0.346563C46.4405 0.542942 46.5513 0.809 46.5523 1.08672V53.2013Z" fill="#E0E0E0"/>
<path d="M87.0355 0H49.9603C49.6714 0.000489272 49.3943 0.114837 49.189 0.318258C48.9838 0.521679 48.867 0.797782 48.864 1.08672V53.2013C48.864 53.492 48.9795 53.7709 49.1851 53.9765C49.3907 54.1821 49.6696 54.2976 49.9603 54.2976H87.0355C87.3256 54.2966 87.6035 54.1806 87.8083 53.9751C88.013 53.7696 88.128 53.4914 88.128 53.2013V1.08672C88.1255 0.798288 88.0094 0.522472 87.8049 0.319052C87.6004 0.115632 87.324 0.000999263 87.0355 0ZM88.0839 53.2013C88.0834 53.4792 87.9727 53.7455 87.7762 53.942C87.5798 54.1385 87.3134 54.2491 87.0355 54.2496H49.9603C49.6823 54.2496 49.4157 54.1391 49.2191 53.9426C49.0225 53.746 48.912 53.4793 48.912 53.2013V1.08672C48.9125 0.808844 49.0231 0.542495 49.2196 0.346006C49.4161 0.149518 49.6825 0.0389069 49.9603 0.0383994H87.0355C87.3133 0.0394112 87.5793 0.150184 87.7757 0.346563C87.9721 0.542942 88.0828 0.809 88.0839 1.08672V53.2013Z" fill="#E0E0E0"/>
<path d="M71.2377 9.43296H91.5609C91.5609 9.43296 90.3341 7.2096 87.8035 7.89696C87.8035 7.89696 88.1107 4.18176 86.1158 3.58656C84.1209 2.99136 83.0438 5.2896 83.0438 5.2896C83.0438 5.2896 81.6633 0.994558 79.056 1.53216C76.4486 2.06976 75.3753 6.52416 75.3753 6.52416C75.3753 6.52416 71.5449 5.13792 71.2377 9.43296Z" fill="#F5F5F5"/>
<path d="M41.8541 16.7041H62.185C62.185 16.7041 60.9562 14.4788 58.4256 15.1681C58.4256 15.1681 58.7328 11.4529 56.738 10.8558C54.7431 10.2586 53.666 12.5607 53.666 12.5607C53.666 12.5607 52.2855 8.26569 49.6781 8.80137C47.0708 9.33705 45.9956 13.7934 45.9956 13.7934C45.9956 13.7934 42.1613 12.409 41.8541 16.7041Z" fill="#F5F5F5"/>
<path d="M41.4854 3.00293H7.39966V62.8609H41.4854V3.00293Z" fill="#F5F5F5"/>
<path d="M35.806 22.1185H14.1984V62.9089H35.806V22.1185Z" fill="#FAFAFA"/>
<path d="M34.4409 23.4144H15.7555V62.9088H34.4409V23.4144Z" fill="#E6E6E6"/>
<path d="M42.72 3.43875H7.39203V0.777627C7.48095 0.54613 7.63952 0.347931 7.84586 0.210372C8.0522 0.0728134 8.29614 0.00267299 8.54403 0.00962655H41.5124L41.5277 0.0480267L42.3936 2.51907L42.72 3.43875Z" fill="#EBEBEB"/>
<path d="M9.10468 5.04574C10.0813 5.04574 10.873 4.32625 10.873 3.43871C10.873 2.55116 10.0813 1.83167 9.10468 1.83167C8.12807 1.83167 7.33636 2.55116 7.33636 3.43871C7.33636 4.32625 8.12807 5.04574 9.10468 5.04574Z" fill="#EBEBEB"/>
<path d="M12.6432 5.04574C13.6198 5.04574 14.4115 4.32625 14.4115 3.43871C14.4115 2.55116 13.6198 1.83167 12.6432 1.83167C11.6666 1.83167 10.8749 2.55116 10.8749 3.43871C10.8749 4.32625 11.6666 5.04574 12.6432 5.04574Z" fill="#EBEBEB"/>
<path d="M16.1817 5.04574C17.1583 5.04574 17.95 4.32625 17.95 3.43871C17.95 2.55116 17.1583 1.83167 16.1817 1.83167C15.2051 1.83167 14.4134 2.55116 14.4134 3.43871C14.4134 4.32625 15.2051 5.04574 16.1817 5.04574Z" fill="#EBEBEB"/>
<path d="M19.7203 5.04574C20.697 5.04574 21.4887 4.32625 21.4887 3.43871C21.4887 2.55116 20.697 1.83167 19.7203 1.83167C18.7437 1.83167 17.952 2.55116 17.952 3.43871C17.952 4.32625 18.7437 5.04574 19.7203 5.04574Z" fill="#EBEBEB"/>
<path d="M23.2589 5.04574C24.2355 5.04574 25.0272 4.32625 25.0272 3.43871C25.0272 2.55116 24.2355 1.83167 23.2589 1.83167C22.2822 1.83167 21.4905 2.55116 21.4905 3.43871C21.4905 4.32625 22.2822 5.04574 23.2589 5.04574Z" fill="#EBEBEB"/>
<path d="M26.7974 5.04574C27.7741 5.04574 28.5658 4.32625 28.5658 3.43871C28.5658 2.55116 27.7741 1.83167 26.7974 1.83167C25.8208 1.83167 25.0291 2.55116 25.0291 3.43871C25.0291 4.32625 25.8208 5.04574 26.7974 5.04574Z" fill="#EBEBEB"/>
<path d="M30.3341 5.04574C31.3107 5.04574 32.1024 4.32625 32.1024 3.43871C32.1024 2.55116 31.3107 1.83167 30.3341 1.83167C29.3574 1.83167 28.5657 2.55116 28.5657 3.43871C28.5657 4.32625 29.3574 5.04574 30.3341 5.04574Z" fill="#EBEBEB"/>
<path d="M33.8726 5.04574C34.8492 5.04574 35.6409 4.32625 35.6409 3.43871C35.6409 2.55116 34.8492 1.83167 33.8726 1.83167C32.896 1.83167 32.1043 2.55116 32.1043 3.43871C32.1043 4.32625 32.896 5.04574 33.8726 5.04574Z" fill="#EBEBEB"/>
<path d="M37.4112 5.04574C38.3878 5.04574 39.1795 4.32625 39.1795 3.43871C39.1795 2.55116 38.3878 1.83167 37.4112 1.83167C36.4346 1.83167 35.6429 2.55116 35.6429 3.43871C35.6429 4.32625 36.4346 5.04574 37.4112 5.04574Z" fill="#EBEBEB"/>
<path d="M42.72 3.43877C42.72 4.32581 41.927 5.0458 40.9497 5.0458C39.9725 5.0458 39.1795 4.32581 39.1795 3.43877C39.1795 2.55173 39.9725 1.83173 40.9497 1.83173C41.226 1.82782 41.4996 1.88681 41.7498 2.00423C41.9999 2.12165 42.2201 2.29442 42.3936 2.50948L42.72 3.43877Z" fill="#EBEBEB"/>
<path d="M41.4854 8.19849H7.39966V8.75913H41.4854V8.19849Z" fill="#FAFAFA"/>
<path d="M67.9258 50.1736H41.4874V51.3621H67.9258V50.1736Z" fill="#E0E0E0"/>
<path d="M47.0477 62.859H43.056V44.3329L45.0508 42.6279L47.0477 44.3329V62.859Z" fill="#E6E6E6"/>
<path d="M52.7655 62.859H48.7738V44.3329L50.7706 42.6279L52.7655 44.3329V62.859Z" fill="#E6E6E6"/>
<path d="M58.4851 62.859H54.4934V44.3329L56.4883 42.6279L58.4851 44.3329V62.859Z" fill="#E6E6E6"/>
<path d="M64.2029 62.859H60.2112V44.3329L62.208 42.6279L64.2029 44.3329V62.859Z" fill="#E6E6E6"/>
<path d="M69.9206 62.859H65.9308V44.3329L67.9257 42.6279L69.9206 44.3329V62.859Z" fill="#E6E6E6"/>
<path d="M28.6752 6.72389C28.6752 6.72389 28.3046 5.81765 26.0217 6.08645C23.7389 6.35525 23.5027 9.37733 22.3622 11.5258C21.2217 13.6743 20.0102 14.7169 20.0102 14.7169C20.0102 14.7169 19.8432 16.0263 22.3277 16.7655C24.8121 17.5047 29.6813 16.2701 29.6813 16.2701C29.6813 16.2701 30.311 10.5505 29.376 8.80517C28.4409 7.05989 28.6752 6.72389 28.6752 6.72389Z" fill="#263238"/>
<path d="M35.3491 63.8573L32.256 64.0493C32.256 64.0493 30.9447 52.1299 29.5008 43.4515C29.5008 43.4227 29.5008 43.3901 29.4874 43.3575C28.896 39.8151 28.2835 36.8295 27.7306 35.4298C27.7306 35.4298 27.0202 46.5408 26.809 51.4733C26.5978 56.4058 25.6128 65.0362 25.6128 65.0362L22.7539 65.4605C22.7539 65.4605 22.2816 48.2803 22.5619 45.0355C22.8423 41.7907 21.5655 29.7715 23.7658 26.7955H31.7242C31.7242 26.7955 34.8058 43.68 35.0285 48.361C35.2512 53.0419 35.3491 63.8573 35.3491 63.8573Z" fill="#263238"/>
<path d="M24.9408 65.0746L24.8947 65.9962L24.7872 68.1293L23.1859 68.3674L23.1494 66.0653L23.136 65.1802L24.9408 65.0746Z" fill="#FF8B7B"/>
<path d="M34.6618 67.4113L32.8704 67.9105C32.8704 67.9105 32.8282 66.8334 32.7859 65.7985C32.759 65.1323 32.7322 64.4833 32.7149 64.1511C32.7149 64.0225 32.7034 63.9438 32.6995 63.9265L34.631 63.7345V64.3412L34.6445 65.7121L34.6618 67.4113Z" fill="#FF8B7B"/>
<path d="M25.4323 67.6569C25.4323 67.6569 25.7299 66.4646 26.2003 66.5241C26.6707 66.5836 25.4323 67.6569 25.4323 67.6569Z" stroke="#FFB803" stroke-miterlimit="10"/>
<path d="M25.5667 67.6569C25.5667 67.6569 26.6861 66.8678 26.8934 67.2729C27.1008 67.678 25.5667 67.6569 25.5667 67.6569Z" stroke="#FFB803" stroke-miterlimit="10"/>
<path d="M35.3491 67.7779C35.3491 67.7779 35.5987 66.5165 35.881 66.5165C36.1632 66.5165 35.3491 67.7779 35.3491 67.7779Z" stroke="#FFB803" stroke-miterlimit="10"/>
<path d="M35.2896 68.1696C35.2896 68.1696 35.9463 66.8775 36.2899 67.1559C36.6336 67.4343 35.2896 68.1696 35.2896 68.1696Z" stroke="#FFB803" stroke-miterlimit="10"/>
<path d="M26.8301 69.2046C26.8301 69.2046 23.4163 69.2929 23.1686 69.2622C22.921 69.2315 22.6464 69.218 22.6272 68.9492C22.6272 68.8187 22.7443 68.0257 22.7635 67.7492C22.7827 67.4727 22.7136 67.3287 23.0611 67.2404C23.4086 67.1521 25.0963 66.9563 25.2998 67.1655C25.5034 67.3748 26.1984 68.1716 26.713 68.2638C27.2275 68.3559 27.6595 68.3195 27.696 68.6113C27.7325 68.9031 27.744 69.1835 26.8301 69.2046Z" fill="#263238"/>
<path d="M36.6586 69.2046C36.6586 69.2046 33.2467 69.2929 32.9971 69.2622C32.7475 69.2315 32.5018 69.1566 32.4614 69.0318C32.4211 68.907 32.5747 68.0257 32.592 67.7492C32.6093 67.4727 32.5421 67.3287 32.8896 67.2404C33.2371 67.1521 34.9248 66.9563 35.1283 67.1655C35.3318 67.3748 36.0269 68.1716 36.5433 68.2638C37.0598 68.3559 37.488 68.3195 37.5245 68.6113C37.5609 68.9031 37.5725 69.1835 36.6586 69.2046Z" fill="#263238"/>
<path opacity="0.3" d="M29.4873 43.3556C28.896 39.8132 28.2835 36.8276 27.7305 35.4279L28.0973 33.4158C28.0973 33.4158 29.0476 40.5966 29.4873 43.3556Z" fill="black"/>
<path opacity="0.2" d="M24.9369 65.0746L24.8909 65.9962C24.4416 66.0135 23.5469 66.0461 23.1456 66.0653L23.1321 65.1802L24.9369 65.0746Z" fill="black"/>
<path opacity="0.2" d="M34.6483 65.7102L32.7859 65.7985C32.7591 65.1322 32.7322 64.4833 32.7149 64.1511L34.6349 64.3431L34.6483 65.7102Z" fill="black"/>
<path d="M35.8771 63.7324L35.591 65.1935L32.1811 65.4585L31.7337 63.7324H35.8771Z" fill="#FFB803"/>
<path d="M26.0717 64.2087L25.7721 65.6526L22.2125 65.8215L22.2144 64.2087H26.0717Z" fill="#FFB803"/>
<path d="M36.6297 22.3353C35.8617 22.702 33.7497 23.1033 33.7497 23.1033C33.7497 23.1033 32.3673 19.5302 32.0025 17.4988C31.8881 16.7726 31.5412 16.1031 31.014 15.5908C30.4867 15.0784 29.8076 14.7509 29.0784 14.6572C28.1453 14.5363 24.2054 14.5766 22.823 14.8608C21.4406 15.1449 21.2006 17.1744 21.0777 18.3936C20.9549 19.6128 20.1849 24.1536 20.8339 25.4976C21.4829 26.8416 23.7581 26.3078 23.7581 26.3078V26.7955H31.7184L31.5264 23.0707C31.5264 23.0707 32.279 25.0483 33.4464 25.1289C34.6137 25.2096 37.2633 23.2627 37.2633 23.2627L36.6297 22.3353ZM22.6137 24.4185C22.6137 24.4185 22.7021 22.0992 22.8595 21.431L23.0995 22.6694L23.4374 24.4185H22.6137Z" fill="#FFB803"/>
<path d="M27.6768 23.8926L28.9286 22.3777L30.6854 22.1089L30.9542 23.6698L29.6102 24.1614C29.6102 24.1614 28.9632 24.9409 27.671 24.8065L27.6768 23.8926Z" fill="#FF8B7B"/>
<path d="M36.6298 22.3354L37.2806 21.1412L38.8685 20.473L39.4694 22.0993L38.1542 22.6119C38.1542 22.6119 37.8106 23.3684 37.2806 23.2705L36.6298 22.3354Z" fill="#FF8B7B"/>
<path d="M27.7037 13.2019C27.6951 13.34 27.6951 13.4785 27.7037 13.6166C27.7229 13.8796 27.673 14.3616 28.1895 14.615C27.9226 15.191 27.2794 16.6348 26.8896 17.1244C26.2963 16.6387 24.9024 14.6784 24.9024 14.6784C24.9024 14.6784 25.8816 13.6166 25.1789 11.616C25.1789 11.616 24.192 10.894 24.3898 10.4966C24.6163 10.0339 25.2595 10.2835 25.3959 10.4793C25.2519 10.2681 24.5818 7.95068 25.3959 7.0982C25.9027 6.56636 26.4096 6.5606 27.3543 6.5222H27.433C28.0378 6.50108 28.4871 6.5222 28.4871 6.5222C28.6924 6.74339 28.8733 6.98608 29.0266 7.24604C29.455 7.94541 29.7177 8.73352 29.7946 9.55004C29.9731 11.4528 29.5987 12.9945 27.7037 13.2019Z" fill="#FF8B7B"/>
<path d="M28.2259 10.8365C28.2259 10.8365 27.3658 11.1284 27.0528 10.4756" stroke="#263238" stroke-width="0.5" stroke-linecap="round" stroke-linejoin="round"/>
<path d="M27.1872 8.09091C27.0434 8.08667 26.9012 8.12294 26.7769 8.19559C26.6527 8.26824 26.5514 8.37434 26.4845 8.50179" stroke="#263238" stroke-linecap="round" stroke-linejoin="round"/>
<path d="M29.3761 7.89315C29.3063 7.81687 29.2219 7.75545 29.1279 7.71256C29.0339 7.66967 28.9322 7.6462 28.8289 7.64355" stroke="#263238" stroke-linecap="round" stroke-linejoin="round"/>
<path d="M28.5849 10.4832L28.416 9.04517L29.2627 10.1319C29.2627 10.1319 29.1801 10.5063 28.5849 10.4832Z" fill="#FF5652"/>
<path d="M27.1949 9.05676C27.2045 9.20268 27.2909 9.31596 27.3869 9.3102C27.4829 9.30444 27.5501 9.17964 27.5385 9.0318C27.527 8.88396 27.4445 8.7726 27.3465 8.78028C27.2486 8.78796 27.1833 8.9166 27.1949 9.05676Z" fill="#263238"/>
<path d="M28.8692 8.81677C28.8807 8.96461 28.9652 9.07789 29.0612 9.07021C29.1572 9.06253 29.2244 8.93965 29.2128 8.79181C29.2013 8.64397 29.1168 8.53261 29.0208 8.54029C28.9248 8.54797 28.8596 8.67085 28.8692 8.81677Z" fill="#263238"/>
<path d="M24.8121 9.41573C24.8121 9.41573 23.831 8.10053 24.6413 7.24805C25.1481 6.71621 26.5113 6.36869 27.4541 6.32837C27.4329 6.55109 27.4541 8.50181 24.8121 9.41573Z" fill="#263238"/>
<path d="M29.0419 7.25197C28.4392 7.19108 27.8735 6.93253 27.433 6.51661L27.3581 6.43789C27.7362 6.42226 28.115 6.44931 28.4871 6.51853C28.6924 6.73972 28.8733 6.9824 29.0266 7.24237L29.0419 7.25197Z" fill="#263238"/>
<path opacity="0.2" d="M27.7094 13.6167C27.2922 13.4899 26.922 13.2419 26.6458 12.9044C26.9765 13.0695 27.3354 13.1704 27.7037 13.202C27.697 13.3402 27.6989 13.4788 27.7094 13.6167Z" fill="black"/>
<path opacity="0.2" d="M23.1015 22.6695L22.8615 21.4311V19.6532C22.8615 19.6532 23.1379 21.529 23.1015 22.6695Z" fill="black"/>
<path d="M58.3869 16.9177L44.3914 17.71L45.0012 28.4812L58.9967 27.6889L58.3869 16.9177Z" fill="#FFB803"/>
<path opacity="0.3" d="M58.3869 16.9177L44.3914 17.71L45.0012 28.4812L58.9967 27.6889L58.3869 16.9177Z" fill="black"/>
<path d="M53.3003 17.2065L39.3048 17.9988L39.9146 28.77L53.9101 27.9777L53.3003 17.2065Z" fill="#FFB803"/>
<path opacity="0.3" d="M53.3003 17.2065L39.3048 17.9988L39.9146 28.77L53.9101 27.9777L53.3003 17.2065Z" fill="white"/>
<path opacity="0.3" d="M55.0317 18.1373L52.0441 18.3165L52.1046 19.3245L55.0921 19.1453L55.0317 18.1373Z" fill="black"/>
<path opacity="0.5" d="M43.1614 19.1284L40.1786 19.2972L40.2709 20.9266L43.2536 20.7578L43.1614 19.1284Z" fill="white"/>
<path opacity="0.3" d="M44.2031 23.3775L39.6255 23.6366L39.6974 24.9075L44.2751 24.6484L44.2031 23.3775Z" fill="black"/>
<path d="M62.4307 8.03906L61.6627 9.01826C61.8755 9.16679 62.1201 9.26345 62.377 9.3005L62.4307 8.03906Z" fill="#A02724"/>
<path d="M75.6864 68.0929L73.4554 67.9661L73.0023 66.0634L72.7546 65.0209L72.6624 64.6369L74.3789 64.5197L74.5018 64.5101L74.8666 65.6141L75.6864 68.0929Z" fill="#B55B52"/>
<path d="M62.8569 68.4059C62.8992 68.5575 60.7853 68.2868 60.7853 68.2868L60.7104 66.5108L60.6528 65.1399V65.0651H60.6701L62.8166 65.2782C62.8166 65.2782 62.8166 65.8542 62.8166 66.5089C62.8205 67.3499 62.832 68.3233 62.8569 68.4059Z" fill="#B55B52"/>
<path d="M67.3344 13.1886C67.3344 13.1886 64.3199 14.0046 64.5427 13.4132C64.6549 13.0553 64.6998 12.6796 64.6751 12.3054C64.6751 12.0596 64.6444 11.8849 64.6444 11.8849C63.5539 11.9482 62.8204 11.1591 62.494 10.1876C62.0735 8.94151 62.2271 7.54951 62.7379 6.36679C62.7782 6.27079 62.8934 5.86375 62.9951 5.81383L64.1779 5.26855C64.1779 5.26855 65.3299 6.02312 65.9289 6.4916C66.5279 6.96008 67.0099 9.13735 67.0099 10.8308C67.0099 12.5242 67.3344 13.1886 67.3344 13.1886Z" fill="#B55B52"/>
<path d="M62.3404 7.68005C62.2871 7.69461 62.2399 7.72569 62.2054 7.76881C62.1709 7.81194 62.1509 7.86489 62.1484 7.92005C62.1405 7.9713 62.1484 8.02373 62.1711 8.07037C62.1937 8.11701 62.23 8.15566 62.2751 8.18117L62.3404 7.68005Z" fill="#263238"/>
<path d="M62.3405 6.70475C62.4659 6.70194 62.5894 6.73599 62.6957 6.80267" stroke="#263238" stroke-linecap="round" stroke-linejoin="round"/>
<path d="M63.3888 9.82084C63.3888 9.82084 64.2643 11.1879 65.6582 11.5008C67.0522 11.8138 67.4918 11.33 67.6781 10.5408C67.8395 9.7968 68.1968 9.10941 68.713 8.5498C69.1949 8.05252 68.905 6.70276 68.2925 5.593C68.2925 5.593 68.9491 5.04196 67.8912 4.51204C66.8333 3.98212 66.4435 4.8634 65.5258 4.34884C64.608 3.83428 65.833 3.6634 64.967 5.26852C64.1011 6.87364 63.6231 5.70628 63.4944 6.42052C63.3658 7.13476 62.6957 8.37508 63.3888 9.82084Z" fill="#263238"/>
<path d="M63.4943 6.75271C63.4079 6.72391 60.6316 5.71975 60.6047 5.26471C60.5779 4.80967 62.7571 5.63719 62.8396 5.66983L63.4022 6.55879L63.4943 6.75271Z" fill="#FFB803"/>
<path d="M69.0969 7.8529C69.0701 7.93546 68.9049 8.48266 68.8339 8.48266L68.6016 8.46922C68.3853 8.4513 68.1702 8.42634 67.9565 8.39434C67.7203 8.35786 67.488 8.31178 67.2595 8.25802H67.2499C67.0176 8.20234 66.7891 8.1409 66.5664 8.06602C66.0197 7.90095 65.4831 7.70413 64.9593 7.47658C64.6637 7.34794 64.4025 7.22314 64.1913 7.11562C63.7593 6.90058 63.5021 6.7489 63.5021 6.7489L63.4637 6.68554L63.3062 6.43786L62.9702 5.90602L62.855 5.72746V5.71402C62.8496 5.69782 62.8496 5.6803 62.855 5.6641C62.8665 5.46058 63.2832 4.8961 63.3581 4.8001C63.6664 4.38793 64.0592 4.04626 64.5101 3.79786C65.1283 3.4561 65.8253 3.60586 66.4819 3.72106C66.6991 3.76616 66.9109 3.83439 67.1136 3.92458L67.2422 3.98026L67.2672 3.99178C67.2902 4.00522 67.3152 4.01482 67.3382 4.02634L67.3805 4.04746C67.8684 4.27596 68.3123 4.58857 68.6918 4.97098C69.5558 5.94058 69.2045 7.53994 69.0969 7.8529Z" fill="#FFB803"/>
<path d="M68.1581 14.2196C68.1581 14.2196 68.0198 13.2596 67.7184 13.0676C67.417 12.8756 64.4218 12.9044 63.9552 13.2328C63.4886 13.5611 63.5712 14.6344 63.5712 14.6344L68.1581 14.2196Z" fill="#FFB803"/>
<path d="M62.8416 8.30406C62.8416 8.30406 63.3524 7.64358 63.8996 8.05254C64.4468 8.4615 64.0128 9.4311 63.3696 9.70374C63.3696 9.70374 62.5383 9.97446 62.4308 9.12774C62.3232 8.28102 62.8416 8.30406 62.8416 8.30406Z" fill="#B55B52"/>
<path d="M60.7929 31.2903C60.7929 31.2903 59.6505 42.2208 59.3318 47.2474C59.0131 52.274 60.1843 65.1284 60.1843 65.1284H62.9625C62.9625 65.1284 63.2813 52.3584 63.7613 48.528C64.2413 44.6976 65.8349 39.504 65.8349 39.504C65.8349 39.504 66.7949 47.7236 67.7549 51.0759C68.7149 54.4282 71.8329 64.6695 71.8329 64.6695L75.0317 64.0551C75.0317 64.0551 71.1917 50.9165 71.1917 46.8461C71.1917 42.7757 71.2281 34.5581 70.272 31.2941L60.7929 31.2903Z" fill="#FFB803"/>
<path opacity="0.3" d="M75.0259 64.059L71.8291 64.6753C71.8291 64.6753 68.7129 54.4341 67.7529 51.0817C67.2249 49.2385 66.6989 45.9189 66.3321 43.3057C66.0249 41.1726 65.8329 39.5099 65.8329 39.5099C65.8329 39.5099 64.2374 44.6939 63.7574 48.5339C63.2774 52.3739 62.9606 65.1342 62.9606 65.1342H60.1843C60.1843 65.1342 59.0131 52.2817 59.3318 47.2552C59.6505 42.2286 60.7929 31.2961 60.7929 31.2961H70.2624C71.2224 34.5601 71.184 42.7873 71.184 46.8481C71.184 50.9089 75.0259 64.059 75.0259 64.059Z" fill="black"/>
<path opacity="0.3" d="M66.3302 43.3058C66.0249 41.1726 65.8329 39.5099 65.8329 39.5099L66.0249 36.5262L66.3302 43.3058Z" fill="black"/>
<path d="M59.8829 64.5946H63.2122L63.049 65.9655H60.0134L59.8829 64.5946Z" fill="#263238"/>
<path d="M71.4279 64.395L75.0279 63.0568L75.4829 65.0036L71.9693 65.9656L71.4279 64.395Z" fill="#263238"/>
<path opacity="0.2" d="M74.3789 64.5198L72.7546 65.0209L73.0023 66.0635L74.8666 65.6142L74.3789 64.5198Z" fill="black"/>
<path opacity="0.2" d="M62.8166 66.5166H60.7046L60.647 65.1457L60.6605 65.0728L62.807 65.2859C62.807 65.2859 62.8128 65.8542 62.8166 66.5166Z" fill="black"/>
<path d="M59.6889 69.0875C59.7023 69.1239 58.3603 68.3425 58.7289 67.9777C59.0975 67.6129 59.6889 69.0875 59.6889 69.0875Z" stroke="#FFB803" stroke-miterlimit="10"/>
<path d="M59.881 69.0317C59.8714 69.0701 59.1322 67.705 59.6352 67.584C60.1383 67.4631 59.881 69.0317 59.881 69.0317Z" stroke="#FFB803" stroke-miterlimit="10"/>
<path d="M73.1463 68.258C73.1463 68.258 72.7066 66.843 72.2803 67.0753C71.8541 67.3076 73.1463 68.258 73.1463 68.258Z" stroke="#FFB803" stroke-miterlimit="10"/>
<path d="M73.0272 68.3809C73.0272 68.3809 72.0346 67.2846 71.7447 67.6686C71.4547 68.0526 73.0272 68.3809 73.0272 68.3809Z" stroke="#FFB803" stroke-miterlimit="10"/>
<path d="M75.769 67.9624H73.3843C73.3843 67.9624 72.0058 68.7918 71.401 68.8686C70.7962 68.9454 70.441 68.9819 70.4582 69.4158C70.4755 69.8498 70.8422 69.8882 72.0806 69.869C73.319 69.8498 75.7766 70.0014 76.0435 69.7557C76.3104 69.5099 76.1414 69.0472 75.769 67.9624Z" fill="#263238"/>
<path d="M62.8569 68.2581L60.5529 68.2753C60.5529 68.2753 59.1743 69.1048 58.5715 69.1816C57.9686 69.2584 57.6115 69.2949 57.6268 69.7288C57.6422 70.1627 58.0108 70.2011 59.2511 70.1819C60.4915 70.1627 62.6783 70.3413 62.9452 70.0955C63.2121 69.8497 63.0643 69.4465 62.8569 68.2581Z" fill="#263238"/>
<path opacity="0.3" d="M62.8397 5.6698C62.8992 5.97508 62.9606 6.20932 63.4656 6.74116C62.8243 6.50308 60.6278 5.65444 60.6048 5.26468C60.5817 4.87492 62.2867 5.46052 62.8397 5.6698Z" fill="black"/>
<path opacity="0.3" d="M62.8396 5.71789C62.8342 5.70169 62.8342 5.68417 62.8396 5.66797C62.8396 5.66797 62.8396 5.68909 62.8396 5.72941V5.71789Z" fill="black"/>
<path opacity="0.3" d="M63.4944 6.75275L63.4349 6.72971C63.4379 6.72166 63.4418 6.71394 63.4464 6.70667L63.4944 6.75275Z" fill="black"/>
<path d="M69.0969 7.8529C69.0701 7.93546 68.9049 8.48266 68.8339 8.48266L68.6016 8.46922C68.3853 8.4513 68.1702 8.42634 67.9565 8.39434C67.7203 8.35786 67.488 8.31178 67.2595 8.25802H67.2499C67.0176 8.20234 66.7891 8.1409 66.5664 8.06602C66.0197 7.90095 65.4831 7.70413 64.9593 7.47658C64.6637 7.34794 64.4025 7.22314 64.1913 7.11562C63.7593 6.90058 63.5021 6.7489 63.5021 6.7489L63.4637 6.68554L63.3062 6.43786L62.9702 5.90602L62.855 5.72746V5.71402C62.8496 5.69782 62.8496 5.6803 62.855 5.6641C62.8665 5.46058 63.2832 4.8961 63.3581 4.8001C63.6664 4.38793 64.0592 4.04626 64.5101 3.79786C65.1283 3.4561 65.8253 3.60586 66.4819 3.72106C66.6991 3.76616 66.9109 3.83439 67.1136 3.92458L67.2422 3.98026L67.2672 3.99178C67.2902 4.00522 67.3152 4.01482 67.3382 4.02634L67.3805 4.04746C67.8684 4.27596 68.3123 4.58857 68.6918 4.97098C69.5558 5.94058 69.2045 7.53994 69.0969 7.8529Z" fill="#FFB803"/>
<path opacity="0.2" d="M65.3203 11.7007C65.1159 11.9134 64.9006 12.1152 64.6752 12.3055C64.6752 12.0597 64.6445 11.885 64.6445 11.885C64.8761 11.8497 65.1029 11.7879 65.3203 11.7007Z" fill="black"/>
<path d="M60.7929 31.3979V21.5637L58.9977 20.8321C58.9977 20.8321 59.3414 15.5848 61.8969 14.7573C64.4525 13.9297 69.0009 13.5822 70.2528 14.7573C71.0438 15.5041 71.1494 16.7022 71.1782 17.7294C71.2397 19.8222 70.6925 21.8689 70.5715 23.9502C70.4755 25.6437 70.4179 27.3371 70.3795 29.0325C70.3795 29.163 70.3296 31.3979 70.3257 31.3979H60.7929Z" fill="#263238"/>
<path d="M61.776 21.8996C61.776 21.8996 60.4473 26.2887 59.1341 26.5633C57.8208 26.8379 53.3357 24.3899 53.3357 24.3899H51.3331L51.049 22.6292C51.049 22.6292 52.9133 21.938 54.1555 22.7655C54.1555 22.7655 57.0566 24.0308 58.0224 24.3995L59.4221 21.0126L61.776 21.8996Z" fill="#B55B52"/>
</g>
</svg>
