<svg width="20" height="17" viewBox="0 0 20 17" fill="none" xmlns="http://www.w3.org/2000/svg">
<path d="M17.5 3.33333H4.16667C3.45083 3.33333 2.77333 3.02333 2.30417 2.50083C2.7625 1.98917 3.42833 1.66667 4.16667 1.66667H19.1667C19.6275 1.66667 20 1.29333 20 0.833333C20 0.373333 19.6275 0 19.1667 0H4.16667C1.86583 0 0 1.86583 0 4.16667V12.5C0 14.8008 1.86583 16.6667 4.16667 16.6667H17.5C18.8808 16.6667 20 15.5475 20 14.1667V5.83333C20 4.4525 18.8808 3.33333 17.5 3.33333ZM18.3333 14.1667C18.3333 14.6258 17.96 15 17.5 15H4.16667C2.78833 15 1.66667 13.8783 1.66667 12.5V4.165C2.37833 4.6975 3.25333 5 4.16667 5H17.5C17.96 5 18.3333 5.37417 18.3333 5.83333V14.1667ZM16.6667 10C16.6667 10.46 16.2933 10.8333 15.8333 10.8333C15.3733 10.8333 15 10.46 15 10C15 9.54 15.3733 9.16667 15.8333 9.16667C16.2933 9.16667 16.6667 9.54 16.6667 10Z" fill="#721A16"/>
</svg>
