<svg width="11" height="11" viewBox="0 0 11 11" fill="none" xmlns="http://www.w3.org/2000/svg">
<path d="M10.8658 7.48222C10.7799 7.39629 10.6633 7.34802 10.5418 7.34802C10.4202 7.34802 10.3037 7.39629 10.2177 7.48222L7.63871 10.0618L6.40672 8.84579C6.32163 8.75857 6.20538 8.70873 6.08354 8.70722C5.9617 8.70572 5.84426 8.75268 5.75704 8.83777C5.66982 8.92286 5.61998 9.03912 5.61848 9.16096C5.61697 9.2828 5.66393 9.40025 5.74902 9.48747L7.00668 10.725C7.08556 10.8101 7.18085 10.8783 7.28679 10.9255C7.39273 10.9728 7.50714 10.9981 7.62313 11H7.63825C7.75195 11.0004 7.86458 10.9782 7.96961 10.9347C8.07465 10.8911 8.17 10.8272 8.25012 10.7465L10.8658 8.13032C10.9517 8.04436 11 7.9278 11 7.80627C11 7.68473 10.9517 7.56817 10.8658 7.48222Z" fill="#FFB803"/>
<path d="M5.08287 10.0645C4.19786 9.98361 3.35544 9.64718 2.65818 9.09614C1.96093 8.5451 1.4389 7.80323 1.15567 6.96085C0.872428 6.11846 0.840195 5.2119 1.06289 4.35153C1.28559 3.49115 1.7536 2.71408 2.40997 2.11491C3.06633 1.51575 3.88272 1.12033 4.75976 0.976803C5.6368 0.833275 6.53664 0.947828 7.34975 1.30652C8.16286 1.6652 8.85415 2.25255 9.33947 2.99706C9.82479 3.74157 10.0832 4.61111 10.0832 5.49984C10.0832 5.64056 10.0764 5.77989 10.0645 5.9174C10.0588 5.97749 10.0652 6.0381 10.083 6.09575C10.1009 6.1534 10.13 6.20694 10.1686 6.25332C10.2072 6.2997 10.2546 6.33799 10.3081 6.366C10.3616 6.39401 10.42 6.41118 10.4802 6.41653C10.5402 6.42257 10.6009 6.41656 10.6586 6.39883C10.7163 6.3811 10.7699 6.35202 10.8163 6.31329C10.8626 6.27457 10.9007 6.22698 10.9284 6.17332C10.9561 6.11966 10.9727 6.06101 10.9774 6.00081C10.9921 5.83443 10.9999 5.66806 10.9999 5.49984C10.9998 4.43333 10.6897 3.38984 10.1073 2.49641C9.52488 1.60298 8.69527 0.898162 7.71949 0.467763C6.74371 0.0373639 5.66385 -0.100047 4.61138 0.0722592C3.55891 0.244566 2.57923 0.719156 1.79163 1.43825C1.00402 2.15734 0.44247 3.08992 0.175334 4.12243C-0.0918019 5.15495 -0.0529956 6.24286 0.287029 7.25371C0.627053 8.26457 1.25363 9.15476 2.09046 9.81591C2.9273 10.4771 3.9383 10.8806 5.00037 10.9775H5.04208C5.16364 10.9829 5.28236 10.9398 5.37214 10.8577C5.46192 10.7756 5.5154 10.6611 5.5208 10.5396C5.52621 10.418 5.48311 10.2993 5.40099 10.2095C5.31886 10.1197 5.20443 10.0662 5.08287 10.0608V10.0645Z" fill="#FFB803"/>
<path d="M5.04182 3.2081V5.31006L3.80112 6.5508C3.75735 6.59308 3.72243 6.64365 3.69841 6.69957C3.67439 6.75549 3.66174 6.81564 3.66121 6.87649C3.66069 6.93735 3.67228 6.99771 3.69533 7.05404C3.71837 7.11036 3.75241 7.16154 3.79544 7.20457C3.83847 7.24761 3.88965 7.28164 3.94597 7.30469C4.0023 7.32773 4.06265 7.33933 4.12351 7.3388C4.18437 7.33827 4.24451 7.32563 4.30043 7.30161C4.35634 7.27759 4.40692 7.24267 4.4492 7.19889L5.82419 5.82386C5.91014 5.73793 5.95845 5.62137 5.95848 5.49982V3.2081C5.95848 3.08654 5.91019 2.96996 5.82423 2.884C5.73828 2.79805 5.6217 2.74976 5.50015 2.74976C5.37859 2.74976 5.26201 2.79805 5.17606 2.884C5.09011 2.96996 5.04182 3.08654 5.04182 3.2081Z" fill="#FFB803"/>
</svg>
