<svg width="13" height="13" viewBox="0 0 13 13" fill="none" xmlns="http://www.w3.org/2000/svg">
<g clip-path="url(#clip0_13_3334)">
<path d="M6.5 0C2.91579 0 0 2.91579 0 6.5C0 10.0842 2.91579 13 6.5 13C10.0842 13 13 10.0842 13 6.5C13 2.91579 10.0842 0 6.5 0ZM6.5 11.9167C3.51325 11.9167 1.08333 9.48675 1.08333 6.5C1.08333 3.51325 3.51325 1.08333 6.5 1.08333C9.48675 1.08333 11.9167 3.51325 11.9167 6.5C11.9167 9.48675 9.48675 11.9167 6.5 11.9167ZM5.41667 5.41667C5.41667 5.62142 5.56346 5.79475 5.7655 5.82833L7.41271 6.10296C8.13963 6.22375 8.66667 6.84667 8.66667 7.58333C8.66667 8.47925 7.93758 9.20833 7.04167 9.20833V10.2917H5.95833V9.20833C5.06242 9.20833 4.33333 8.47925 4.33333 7.58333H5.41667C5.41667 7.88233 5.65933 8.125 5.95833 8.125H7.04167C7.34067 8.125 7.58333 7.88233 7.58333 7.58333C7.58333 7.37858 7.43654 7.20525 7.2345 7.17167L5.58729 6.89704C4.86037 6.77625 4.33333 6.15333 4.33333 5.41667C4.33333 4.52075 5.06242 3.79167 5.95833 3.79167V2.70833H7.04167V3.79167C7.93758 3.79167 8.66667 4.52075 8.66667 5.41667H7.58333C7.58333 5.11821 7.34067 4.875 7.04167 4.875H5.95833C5.65933 4.875 5.41667 5.11821 5.41667 5.41667Z" fill="#FFB803"/>
</g>
<defs>
<clipPath id="clip0_13_3334">
<rect width="13" height="13" fill="white"/>
</clipPath>
</defs>
</svg>
