<svg width="26" height="26" viewBox="0 0 26 26" fill="none" xmlns="http://www.w3.org/2000/svg">
<path d="M1.98256 1.96893L3.12004 0.983112C4.43086 -0.327704 6.55417 -0.327704 7.86498 0.983112C7.89748 1.01561 9.90162 3.62641 9.90162 3.62641C11.1366 4.92639 11.1366 6.97386 9.90162 8.26301L8.64497 9.84466C10.2266 13.4304 12.6857 15.9004 16.1524 17.3737L17.734 16.1062C19.0232 14.8604 21.0815 14.8604 22.3706 16.1062C22.3706 16.1062 24.9814 18.1104 25.0139 18.1429C26.3247 19.4537 26.3247 21.577 25.0681 22.8336L23.9848 24.0795C22.7389 25.3253 21.0598 26.0078 19.2398 26.0078C10.9633 26.0078 8.7738e-05 15.0338 8.7738e-05 6.76803C8.7738e-05 4.95889 0.682579 3.26891 1.98256 1.97976V1.96893ZM19.2398 23.8303C20.4748 23.8303 21.6123 23.3753 22.3923 22.5845L23.4756 21.3387C23.9198 20.8945 23.9414 20.1687 23.5189 19.7029C23.5189 19.7029 20.9298 17.7095 20.8973 17.677C20.4531 17.2329 19.6732 17.2329 19.2182 17.677C19.1857 17.7095 17.0082 19.4537 17.0082 19.4537C16.7049 19.692 16.304 19.757 15.9465 19.6162C11.4616 17.9045 8.24414 14.6979 6.39167 10.0722C6.25084 9.71466 6.305 9.303 6.55416 8.98884C6.55416 8.98884 8.29831 6.80053 8.31997 6.77887C8.7858 6.31304 8.7858 5.56555 8.31997 5.09972C8.28748 5.06722 6.29417 2.47809 6.29417 2.47809C5.82834 2.0556 5.10252 2.06643 4.60419 2.56476L3.46671 3.55058C2.63255 4.38473 2.16673 5.52222 2.16673 6.7572C2.16673 14.2971 12.7507 23.8303 19.2398 23.8303Z" fill="#FFB803"/>
</svg>
