<svg width="11" height="14" viewBox="0 0 11 14" fill="none" xmlns="http://www.w3.org/2000/svg">
<path d="M9.47222 2.91667H7.63889C6.79617 2.91667 6.11111 3.57117 6.11111 4.375V6.41667H5.26656L4.42994 4.81892C4.004 4.00517 3.14661 3.5 2.19389 3.5C0.9845 3.5 0 4.43975 0 5.60233L0.0329999 7.80733C0.0452222 8.6205 0.487667 9.3555 1.21733 9.77375L2.75978 10.6593C2.9425 10.7643 3.05556 10.9562 3.05556 11.1592V13.4161C3.05556 13.7381 3.32872 13.9994 3.66667 13.9994C4.00461 13.9994 4.27778 13.7381 4.27778 13.4161V11.1592C4.27778 10.549 3.93739 9.97442 3.38983 9.65942L1.84678 8.77333C1.48256 8.56392 1.26133 8.19642 1.25522 7.78983L1.22222 5.593C1.22222 5.08142 1.65794 4.6655 2.19389 4.6655C2.27944 4.6655 2.36317 4.67367 2.44444 4.68883V7.58217C2.44444 7.90417 2.71761 8.1655 3.05556 8.1655C3.3935 8.1655 3.66667 7.90417 3.66667 7.58217V5.96925L4.17328 6.93642C4.38106 7.33483 4.79967 7.58158 5.26656 7.58158H9.47222C10.3149 7.58158 11 6.92708 11 6.12325V4.37325C11 3.56942 10.3149 2.91492 9.47222 2.91492V2.91667ZM9.77778 6.125C9.77778 6.286 9.64028 6.41667 9.47222 6.41667H7.33333V4.375C7.33333 4.214 7.47083 4.08333 7.63889 4.08333H9.47222C9.64028 4.08333 9.77778 4.214 9.77778 4.375V6.125ZM0.611111 1.45833C0.611111 0.65275 1.29494 0 2.13889 0C2.98283 0 3.66667 0.65275 3.66667 1.45833C3.66667 2.26392 2.98283 2.91667 2.13889 2.91667C1.29494 2.91667 0.611111 2.26392 0.611111 1.45833ZM1.83333 11.6667V13.4167C1.83333 13.7387 1.56017 14 1.22222 14C0.884278 14 0.611111 13.7387 0.611111 13.4167V11.6667C0.611111 11.3447 0.884278 11.0833 1.22222 11.0833C1.56017 11.0833 1.83333 11.3447 1.83333 11.6667Z" fill="#C7C7C7"/>
</svg>
