<svg width="13" height="13" viewBox="0 0 13 13" fill="none" xmlns="http://www.w3.org/2000/svg">
<path d="M6.5 13C5.61925 13 4.78833 12.6133 4.22067 11.9389C3.3865 12.0342 2.52688 11.7195 1.90396 11.0966C1.28158 10.4737 0.967417 9.61242 1.04271 8.73383C0.38675 8.21167 0 7.38075 0 6.5C0 5.61925 0.38675 4.78833 1.06167 4.22067C0.966875 3.38812 1.28104 2.52688 1.90396 1.90396C2.52688 1.28104 3.3865 0.96525 4.26617 1.04271C4.78833 0.387292 5.61925 0 6.5 0C7.38075 0 8.21167 0.38675 8.77933 1.06113C9.61458 0.967417 10.4731 1.2805 11.096 1.90342C11.7184 2.52633 12.0326 3.38758 11.9573 4.26617C12.6133 4.78833 13 5.61925 13 6.5C13 7.38075 12.6133 8.21167 11.9383 8.77933C12.0331 9.61188 11.719 10.4731 11.096 11.096C10.4726 11.719 9.61133 12.031 8.73383 11.9573C8.21167 12.6127 7.38075 13 6.5 13ZM4.26454 10.8745C4.56842 10.8745 4.85008 11.005 5.04888 11.2407C5.41071 11.6702 5.93938 11.9167 6.5 11.9167C7.06063 11.9167 7.58929 11.6702 7.95113 11.2407C8.16942 10.9812 8.48738 10.8501 8.82646 10.8778C9.38654 10.9249 9.93363 10.7261 10.3301 10.3296C10.7261 9.93363 10.926 9.38546 10.8783 8.82592C10.849 8.48792 10.9812 8.16888 11.2412 7.95004C11.6702 7.58875 11.9167 7.05954 11.9167 6.49946C11.9167 5.93937 11.6702 5.41017 11.2412 5.04888C10.9818 4.83058 10.849 4.511 10.8783 4.173C10.926 3.61346 10.7266 3.06529 10.3301 2.66933C9.93363 2.27338 9.38329 2.07675 8.827 2.12117C8.48792 2.1515 8.16942 2.01771 7.95113 1.75879C7.58929 1.32925 7.06063 1.08279 6.5 1.08279C5.93938 1.08279 5.41071 1.32925 5.04888 1.75879C4.83004 2.01825 4.511 2.14825 4.17354 2.12171C3.61075 2.07296 3.06638 2.27338 2.66988 2.66988C2.27392 3.06583 2.07404 3.614 2.12171 4.17354C2.15096 4.51154 2.01879 4.83058 1.75879 5.04942C1.32979 5.41071 1.08333 5.93992 1.08333 6.5C1.08333 7.06008 1.32979 7.58929 1.75879 7.95058C2.01825 8.16888 2.15096 8.48846 2.12171 8.82646C2.07404 9.386 2.27338 9.93417 2.66988 10.3301C3.06638 10.7261 3.61942 10.9233 4.173 10.8783C4.20388 10.8756 4.23421 10.8745 4.26454 10.8745ZM6.93388 8.19813L9.50083 5.72379C9.71588 5.51633 9.72238 5.17292 9.51438 4.95788C9.30692 4.74283 8.96404 4.73633 8.74846 4.94379L6.17446 7.42517C5.96267 7.63696 5.62087 7.63696 5.39446 7.41162L4.16054 6.26492C3.94279 6.06179 3.59938 6.07371 3.39517 6.29308C3.1915 6.51192 3.20396 6.85479 3.42333 7.05846L4.64317 8.19163C4.96058 8.50904 5.37821 8.66775 5.79475 8.66775C6.20913 8.66775 6.62133 8.51121 6.93442 8.19867L6.93388 8.19813Z" fill="#FFB803"/>
</svg>
